<svg preserveAspectRatio="none" width="100%" height="100%" overflow="visible" style="display: block;" viewBox="0 0 65 12" fill="none" xmlns="http://www.w3.org/2000/svg">
<g id="_&#208;&#161;&#208;&#187;&#208;&#190;&#208;&#185;_1" clip-path="url(#clip0_0_4)">
<path id="Vector" d="M40.8273 0.167676V9.23894C39.862 9.38426 39.3112 9.64136 38.7717 8.83093C37.9768 9.47368 37.0796 9.76991 36.0291 9.44015C33.4909 8.64648 33.4738 5.13088 34.4335 3.71123C35.3931 2.29157 37.1818 2.15184 38.7661 2.88402C39.0727 1.78854 38.8001 0.938985 38.9421 0.0670703C39.6519 0.0223568 40.3049 -0.117373 40.8273 0.162087V0.167676ZM39.05 6.00838C39.084 4.80112 38.4367 3.87331 37.3692 3.88449C36.3016 3.89567 35.677 4.81789 35.66 5.91337C35.643 7.00885 36.1881 8.0149 37.3521 8.00373C38.3288 7.99814 39.0159 7.19329 39.05 6.01397V6.00838Z" fill="var(--fill-0, #1D1D1B)"/>
<path id="Vector_2" d="M48.6577 10.1835C48.0899 12.0168 46.534 12.123 44.9838 11.9273C44.91 11.4523 44.7681 11.0107 45.0633 10.5748C45.5687 10.6418 46.9258 10.3791 46.7725 9.64136C46.2671 7.25477 45.1996 5.1197 44.5352 2.72194C45.1031 2.56544 45.8015 2.58221 46.4148 2.68281L47.8173 6.95855C48.4192 5.47741 48.6123 4.136 48.97 2.72753C49.6401 2.54308 50.3044 2.57103 50.9745 2.69399L48.6577 10.1835Z" fill="var(--fill-0, #1D1D1B)"/>
<path id="Vector_3" d="M21.5493 2.76106L21.5947 7.3945C21.5947 7.90312 22.2307 8.05962 22.6282 8.04844C23.1165 8.03726 23.5765 7.90871 23.7071 7.41686C24.1159 5.86865 23.6787 4.22543 23.9229 2.63251C24.5872 2.74429 25.2857 2.47042 25.8989 2.77224C25.9671 4.92967 25.9727 7.09269 25.8932 9.25012C23.9513 9.74755 24.1216 8.95948 23.9683 8.92035C23.5311 8.81975 23.2415 10.0047 20.9815 9.40661C20.3398 9.23894 19.931 8.4844 19.5846 7.76339C19.471 6.09781 19.4938 4.42105 19.5733 2.75547C20.2206 2.59898 20.9077 2.57103 21.5493 2.75547V2.76106Z" fill="var(--fill-0, #1D1D1B)"/>
<path id="Vector_4" d="M1.39687 9.30042C0.635975 8.95389 0.141959 8.45086 0.0340701 7.76339C-0.459946 4.64462 4.96287 5.75128 4.58242 4.39311C4.46886 3.9851 4.07705 3.84537 3.67957 3.81183C2.82214 3.73917 2.3338 3.94038 1.96471 4.63344C1.58426 4.81789 0.851752 4.61667 0.442911 4.47694C0.709793 2.19096 4.02027 2.15184 5.44553 2.8952C7.00708 3.71123 5.85437 7.51188 6.47331 9.3116C5.66699 9.47368 5.01966 9.45692 4.53132 8.83093C3.53761 9.65813 2.52118 9.81463 1.40255 9.30601L1.39687 9.30042ZM3.18555 8.31113C3.86127 8.23288 4.34961 7.89194 4.48021 7.52864C4.66192 7.02562 4.69031 6.46111 4.55971 5.88542C3.47515 6.19842 1.44798 6.23754 1.84546 7.63484C1.98742 8.13787 2.47576 8.39497 3.17987 8.31113H3.18555Z" fill="var(--fill-0, #1D1D1B)"/>
<path id="Vector_5" d="M18.3354 8.00373C17.6937 9.12157 16.4899 9.59665 15.4621 9.59665C14.2697 9.59665 13.0488 9.24453 12.3674 8.13787C11.5384 6.79646 11.5327 4.83465 12.6457 3.57708C13.9176 2.14066 16.5183 2.04006 17.8925 3.40941C19.0792 4.58873 19.1417 6.60084 18.341 8.00373H18.3354ZM16.7284 7.40009C17.2111 6.4667 17.16 5.38798 16.717 4.57196C16.3366 3.87331 15.5019 3.74476 14.7694 3.94038C13.4293 4.2925 13.2249 6.69586 14.1334 7.68514C14.7807 8.39497 16.2401 8.34467 16.7284 7.40009Z" fill="var(--fill-0, #1D1D1B)"/>
<path id="Vector_6" d="M31.2593 9.24453C31.0719 7.69632 31.4807 6.1034 31.0378 4.61667C30.8448 3.97392 30.4019 3.83419 29.6353 4.0354C29.2264 4.14159 28.7495 4.63344 28.7381 5.20354L28.6643 9.33396C28.051 9.40103 27.4264 9.49604 26.9153 9.25012V2.77783C27.5513 2.47042 28.369 2.58221 28.9198 3.02934C29.9646 2.24127 32.4517 2.06241 32.923 3.78947C33.3943 5.51653 32.8663 7.52865 33.082 9.32837C32.3268 9.4122 31.793 9.49604 31.2536 9.24453H31.2593Z" fill="var(--fill-0, #1D1D1B)"/>
<path id="Vector_7" d="M63.1659 6.65673C63.1205 5.31532 63.1261 3.96274 63.1943 2.62133L64.9943 2.66046V9.32837C62.882 9.5687 63.5407 9.04891 63.217 8.92594C62.7571 8.75827 62.2006 10.1164 60.2302 9.46251C59.6794 9.27806 59.1456 8.65766 58.8674 7.95342C58.7538 6.18165 58.7822 4.39311 58.8504 2.62133L60.6277 2.67722L60.7185 7.14299C60.7356 7.93107 61.5816 8.15463 62.2119 7.97019C62.882 7.77457 63.1886 7.3442 63.1659 6.66232V6.65673Z" fill="var(--fill-0, #1D1D1B)"/>
<path id="Vector_8" d="M54.7449 9.57988C52.3657 9.71402 50.8893 7.89194 51.0426 5.73451C51.1846 3.7224 52.6099 2.45366 54.6541 2.45366C56.6983 2.45366 57.9361 3.6721 58.1122 5.58919C58.3052 7.66837 57.0446 9.45133 54.7449 9.57988ZM56.3121 6.00838C56.3178 5.03027 56.0055 4.18072 55.2446 3.94038C54.4837 3.70005 53.5752 3.86213 53.1834 4.61109C52.7121 5.51095 52.7177 6.65673 53.2515 7.51747C53.6944 8.22729 54.6313 8.27201 55.3241 7.99255C56.0169 7.71309 56.3065 6.94737 56.3121 6.00838Z" fill="var(--fill-0, #1D1D1B)"/>
<path id="Vector_9" d="M9.32952 5.36563L9.28409 9.23894C8.72194 9.45692 8.03486 9.44015 7.46702 9.23894V2.77783C8.103 2.46483 8.87525 2.60456 9.43173 3.00699C9.89167 2.91756 10.6299 2.21332 11.2318 2.57662C11.4703 2.90638 11.4078 3.75035 11.1807 4.13041C10.2721 4.18072 9.32952 4.51607 9.32384 5.37122L9.32952 5.36563Z" fill="var(--fill-0, #1D1D1B)"/>
</g>
<defs>
<clipPath id="clip0_0_4">
<rect width="65" height="12" fill="white"/>
</clipPath>
</defs>
</svg>
