<svg preserveAspectRatio="none" width="100%" height="100%" overflow="visible" style="display: block;" viewBox="0 0 109.992 17.953" fill="none" xmlns="http://www.w3.org/2000/svg">
<g id="Group">
<path id="Vector" fill-rule="evenodd" clip-rule="evenodd" d="M22.4528 0.0160705L0.144833 8.90112C0.100057 8.91975 0.0626788 8.95265 0.0385085 8.99474C0.0131795 9.03278 -0.000225905 9.07753 1.1685e-05 9.12324C-0.000453344 9.16899 0.0129717 9.21381 0.0385085 9.25175C0.0641777 9.29041 0.10139 9.31996 0.144833 9.3362L6.76811 11.7282C6.80356 11.7425 6.84219 11.7468 6.87994 11.741C6.91698 11.7352 6.95213 11.7207 6.9826 11.6988L19.5472 2.53105C19.5504 2.52969 19.5538 2.52899 19.5573 2.52899C19.5608 2.52899 19.5642 2.52969 19.5674 2.53105C19.5744 2.53292 19.5808 2.53674 19.5857 2.54207C19.587 2.54497 19.5875 2.54809 19.5875 2.55124C19.5875 2.5544 19.587 2.55751 19.5857 2.56042C19.5883 2.56692 19.5883 2.57413 19.5857 2.58061L8.4638 12.2679C8.43816 12.2903 8.41754 12.3177 8.40331 12.3487C8.38999 12.3799 8.38374 12.4138 8.38497 12.4478V17.6063C8.38365 17.6529 8.39783 17.6988 8.42531 17.7366C8.4528 17.775 8.49109 17.8044 8.5353 17.821C8.57956 17.8368 8.62764 17.8382 8.67271 17.8249C8.71779 17.8118 8.75758 17.7848 8.78644 17.7476L11.9964 13.7861C12.0263 13.7498 12.0666 13.7236 12.1118 13.7108C12.1571 13.6961 12.2058 13.6961 12.2512 13.7108L16.3429 15.1959C16.3968 15.2179 16.4575 15.2179 16.5114 15.1959C16.5647 15.1715 16.607 15.1284 16.6307 15.0748L22.7498 0.313463C22.7662 0.272686 22.77 0.227934 22.7608 0.18496C22.753 0.141057 22.7319 0.100638 22.7003 0.0693074C22.6697 0.0369653 22.63 0.0145934 22.5866 0.00509931C22.543 -0.00439481 22.4978 -0.00057214 22.4565 0.0160705" fill="var(--fill-0, #060B13)"/>
<path id="Vector_2" d="M29.501 1.80664H27.4844L27.5138 14.1062H29.5303L29.501 1.80664Z" fill="var(--fill-0, #060B13)"/>
<path id="Vector_3" d="M35.8521 5.25586C34.8329 5.25586 33.8998 5.623 33.315 6.35731V5.43943H31.4141L31.4361 14.1042H33.337L33.3223 8.36746C33.4997 7.95346 33.7961 7.60176 34.1739 7.35719C34.5516 7.11262 34.9936 6.9863 35.4433 6.99432C36.6532 6.99432 37.3462 7.85528 37.3499 9.22475L37.3609 14.1042H39.2619L39.2491 8.92186C39.2491 6.68223 37.9255 5.2632 35.8521 5.26871" fill="var(--fill-0, #060B13)"/>
<path id="Vector_4" d="M47.1166 5.40199L44.4842 11.4746L41.8426 5.41668H39.7344L43.6612 14.0722H45.3384L49.2377 5.39648L47.1166 5.40199Z" fill="var(--fill-0, #060B13)"/>
<path id="Vector_5" d="M53.956 5.21358C52.8482 5.23196 51.7867 5.66192 50.9776 6.41998C50.1685 7.17804 49.6697 8.21013 49.5779 9.31584C49.486 10.4216 49.8078 11.522 50.4806 12.4036C51.1535 13.285 52.1293 13.8847 53.2189 14.0861C54.3086 14.2875 55.4339 14.0763 56.3768 13.4935C57.3195 12.9106 58.0124 11.9978 58.3209 10.932C58.6292 9.86637 58.5312 8.72395 58.0458 7.72658C57.5603 6.72922 56.7221 5.94808 55.6938 5.53484C55.1419 5.31232 54.5509 5.20308 53.956 5.21358ZM53.9725 12.4575C52.4363 12.4575 51.3602 11.2679 51.3583 9.72586C51.3565 8.18384 52.4179 6.98509 53.9596 6.97224C55.5014 6.95939 56.5555 8.16364 56.5591 9.70568C56.5628 11.2477 55.494 12.4446 53.978 12.4483L53.9725 12.4575Z" fill="var(--fill-0, #060B13)"/>
<path id="Vector_6" d="M61.7448 5.35938H59.8438L59.8675 14.0241H61.7668L61.7448 5.35938Z" fill="var(--fill-0, #060B13)"/>
<path id="Vector_7" d="M61.7448 2.01953H59.8438V3.77849H61.7448V2.01953Z" fill="var(--fill-0, #060B13)"/>
<path id="Vector_8" d="M67.8092 6.946C68.3085 6.94252 68.7982 7.08407 69.2188 7.35352C69.6395 7.62296 69.9732 8.00875 70.1794 8.46416L71.8293 7.56097C71.4429 6.82887 70.8614 6.2183 70.1496 5.79703C69.4376 5.37576 68.6231 5.16028 67.7964 5.17449C65.2115 5.17817 63.25 7.12957 63.25 9.6978C63.25 12.266 65.239 14.1972 67.833 14.1936C68.6595 14.205 69.4731 13.9865 70.1829 13.5622C70.8928 13.1379 71.4709 12.5246 71.8531 11.7905L70.1922 10.8874C69.989 11.3445 69.6574 11.7325 69.2379 12.0044C68.8184 12.2762 68.329 12.42 67.8294 12.4183C66.2931 12.4183 65.2005 11.2288 65.1969 9.68678C65.1932 8.14474 66.2803 6.946 67.8184 6.93315" fill="var(--fill-0, #060B13)"/>
<path id="Vector_9" d="M77.3424 5.15234C74.7155 5.15234 72.8291 7.12395 72.8438 9.67197C72.8438 12.2989 74.7393 14.1732 77.3608 14.1677C79.1665 14.1677 80.523 13.3784 81.2948 12.1484L79.8503 11.113C79.403 11.8749 78.5872 12.433 77.3828 12.4366C75.9492 12.4366 74.8053 11.5059 74.7155 10.085L81.4982 10.0685C81.5147 9.79314 81.5148 9.63526 81.5148 9.44435C81.5148 6.65766 79.6028 5.15418 77.3406 5.15785L77.3424 5.15234ZM74.7943 8.69535C75.0509 7.41032 76.1692 6.76597 77.2783 6.76597C78.3874 6.76597 79.3865 7.43602 79.5973 8.6825L74.7943 8.69535Z" fill="var(--fill-0, #060B13)"/>
<path id="Vector_10" d="M105.499 5.08412H105.431C104.84 5.07948 104.254 5.19257 103.707 5.41681C103.16 5.64107 102.663 5.97198 102.245 6.39033C101.826 6.80868 101.496 7.3061 101.271 7.85367C101.047 8.40124 100.933 8.98801 100.938 9.57988V9.60374C100.934 10.197 101.048 10.7851 101.274 11.3335C101.5 11.882 101.833 12.3799 102.253 12.7981C102.673 13.2164 103.172 13.5465 103.722 13.7693C104.271 13.9921 104.859 14.1032 105.451 14.0958H105.484C106.076 14.1041 106.664 13.9936 107.212 13.771C107.761 13.5484 108.26 13.2183 108.679 12.7998C109.098 12.3818 109.43 11.8844 109.656 11.3367C109.881 10.7889 109.995 10.2017 109.992 9.60925V9.57988C109.995 8.98889 109.881 8.40311 109.657 7.85663C109.432 7.31015 109.101 6.81387 108.683 6.39668C108.265 5.97872 107.769 5.64808 107.223 5.42399C106.676 5.19992 106.091 5.08688 105.5 5.09146L105.499 5.08412ZM105.477 12.3353C103.938 12.3353 102.866 11.1458 102.862 9.60558C102.859 8.06538 103.927 6.86297 105.462 6.85195C106.996 6.84093 108.058 8.04335 108.061 9.58539C108.065 11.1274 106.996 12.3244 105.477 12.3279V12.3353Z" fill="var(--fill-0, #060B13)"/>
<path id="Vector_11" d="M97.6506 5.27839V6.07511C97.0438 5.45279 96.1437 5.1095 95.108 5.11134C92.6038 5.11134 90.7927 7.04255 90.7744 9.47308C90.7624 10.0481 90.8666 10.6197 91.0807 11.1534C91.2949 11.6871 91.6145 12.172 92.0205 12.5788C92.4265 12.9857 92.9104 13.3062 93.4431 13.5211C93.9759 13.736 94.5466 13.8409 95.1208 13.8293C96.1602 13.8293 97.0567 13.4622 97.6598 12.8178V13.844C97.6598 15.1933 96.9265 15.9148 95.9329 16.135C93.4581 16.5793 91.9201 15.8321 91.9201 15.8321L91.3133 17.3889C92.1969 17.9396 94.9375 18.0975 96.2097 17.8166C98.0429 17.4935 99.5681 16.293 99.5626 13.8605L99.5461 5.27655L97.6506 5.27839ZM97.6634 10.8591C97.418 11.2471 97.0752 11.5638 96.6692 11.7774C96.2633 11.991 95.8082 12.094 95.3499 12.0762C93.8486 12.0762 92.7561 10.9564 92.7376 9.46758C92.7283 9.12135 92.7907 8.77694 92.9211 8.45608C93.0478 8.13451 93.2386 7.84219 93.4819 7.59695C93.7253 7.35168 94.0159 7.15849 94.336 7.0291C94.6563 6.89972 94.9993 6.83685 95.3444 6.84428C95.8002 6.82616 96.253 6.92613 96.6589 7.13452C97.0649 7.34291 97.4102 7.65267 97.6616 8.03385L97.6634 10.8591Z" fill="var(--fill-0, #060B13)"/>
<path id="Vector_12" d="M85.0479 12.3368L87.6399 8.81212C88.1624 8.12739 88.9965 6.97637 89.1523 6.72486C89.8746 5.52979 89.9626 4.27414 89.3356 3.02032C88.8242 1.99964 87.9204 1.50214 86.8076 1.36814C85.2477 1.16988 83.6253 1.89316 82.892 3.37278C82.7215 3.69487 82.6097 4.04487 82.562 4.40631L84.2248 4.77346C84.2504 4.70187 84.2742 4.64312 84.2907 4.58988C84.3698 4.28741 84.5155 4.00655 84.7173 3.76796C84.9191 3.52936 85.1717 3.33912 85.4567 3.21123C86.0635 2.93404 86.9341 3.04234 87.4034 3.44805C88.1899 4.13278 88.179 5.2838 87.6087 6.01811C87.5135 6.14294 82.5932 12.4212 82.5932 12.4212C82.5469 12.476 82.5221 12.5459 82.5235 12.6176V14.0073L89.8251 13.989V12.3368H85.0479Z" fill="var(--fill-0, #060B13)"/>
</g>
</svg>
