<svg preserveAspectRatio="none" width="100%" height="100%" overflow="visible" style="display: block;" viewBox="0 0 112.009 11.9997" fill="none" xmlns="http://www.w3.org/2000/svg">
<g id="Group">
<path id="Vector" d="M0.119409 0.333186C0.383602 -0.126781 0.996421 -0.0042115 1.40361 0.182939C4.35739 1.40863 7.30028 2.66596 10.2391 3.92461C10.9881 4.13285 10.6476 5.00929 10.6476 5.55624C9.02707 5.57338 7.40514 5.55625 5.78321 5.56943C5.33517 5.55097 4.8027 5.64587 4.46497 5.28343C3.13175 4.05773 1.84483 2.77931 0.541573 1.52857C0.235164 1.2228 -0.214236 0.772065 0.124857 0.333186H0.119409ZM19.4259 0.831373C20.1395 0.553284 20.8218 0.172395 21.5789 0.0129218C22.0528 -0.084607 22.2598 0.392494 22.4913 0.686398C21.489 2.12165 20.0482 3.19052 18.8281 4.44784C18.2983 4.90254 17.8326 5.65641 17.0236 5.56811C15.2737 5.56811 13.5238 5.55756 11.7711 5.56811C11.6594 5.06069 11.3816 4.25938 12.0299 3.98656C14.4811 2.91638 16.9583 1.87783 19.4259 0.835328V0.831373ZM33.9225 1.0462C34.0586 0.724619 34.4359 0.845871 34.7096 0.812922C37.1146 0.82742 39.5182 0.812922 41.9272 0.822148C43.4252 0.845871 44.7979 2.0083 44.9899 3.44883C45.2827 5.10814 43.8733 6.82939 42.1301 6.90452C40.0765 6.94669 38.0202 6.87684 35.9679 6.93088C35.5675 7.98524 36.0305 9.22545 35.7337 10.3299C35.1985 10.7253 34.587 11.1273 33.887 11.1563C33.887 9.32824 33.9061 7.49892 33.8966 5.67091C33.8721 5.41918 33.9333 4.9948 34.3051 5.06333C36.7877 5.0317 39.273 5.07783 41.7556 5.04883C42.3657 5.08178 43.0208 4.63631 43.0412 4.01555C43.1774 3.29199 42.4965 2.65279 41.7665 2.67783C39.1791 2.6317 36.5916 2.72132 34.0178 2.63961C33.819 2.13615 33.8816 1.57338 33.9279 1.0462H33.9225ZM56.0615 11.147C56.0493 7.70451 56.0084 4.25938 56.0833 0.818194C59.797 0.831374 63.5148 0.790517 67.2284 0.837964C67.0283 1.4798 66.775 2.21522 66.2153 2.62774C63.4766 2.72527 60.723 2.64488 57.979 2.66465C57.964 3.45542 57.9654 4.26202 57.9694 5.06202C60.6495 5.05411 63.3305 5.05411 66.0123 5.06202C66.0505 5.67487 66.0518 6.29168 66.0314 6.90716C63.3432 6.93352 60.6577 6.90715 57.9694 6.92033C57.9694 7.71111 57.9694 8.50188 57.9694 9.29265C60.5569 9.28343 63.1348 9.29265 65.7168 9.29265C66.6701 9.2373 66.8308 10.3918 67.2925 10.9744C67.0463 11.1175 66.7622 11.1876 66.4754 11.176C63.0041 11.1615 59.5301 11.1945 56.0602 11.1589L56.0615 11.147ZM78.2456 0.894636C78.5179 0.620501 78.7794 1.01852 79.0232 1.12395C81.917 3.28277 84.8272 5.41787 87.7143 7.58195C87.7565 5.65905 87.6598 3.73219 87.7565 1.81456C88.1896 1.27157 88.8991 1.00929 89.5446 0.76943C89.6903 1.16481 89.6603 1.58919 89.6644 2.00171C89.6372 4.95394 89.6835 7.91013 89.6426 10.8624C89.7475 11.3276 89.1673 11.1866 88.9617 10.9717C86.0134 8.78524 83.0773 6.58162 80.1208 4.40567C80.084 6.34175 80.1862 8.28442 80.0772 10.2166C79.6496 10.7437 78.902 11.0719 78.2074 11.1839C78.1775 8.121 78.2074 5.05806 78.1884 1.99381C78.176 1.62564 78.1951 1.25711 78.2456 0.891999V0.894636ZM100.784 4.77339C101.32 2.49728 103.621 0.761521 106.034 0.826101C107.94 0.863004 109.84 0.754932 111.737 0.87882C111.718 1.54702 111.281 2.12692 110.864 2.63038C109.135 2.78063 107.385 2.57898 105.654 2.72C104.235 2.8887 102.97 3.94438 102.658 5.30188C102.151 7.14702 103.719 9.17404 105.674 9.28211C107.145 9.30847 108.617 9.28211 110.089 9.28211C110.089 8.49134 110.089 7.70847 110.089 6.92165C108.99 6.90583 107.888 6.94801 106.789 6.9111C106.317 6.96119 106.159 6.43005 105.94 6.12956C105.804 5.80402 105.444 5.47058 105.626 5.09891C107.413 5.00534 109.208 5.09891 110.999 5.05542C111.323 5.0976 111.745 4.95394 111.986 5.24125C112.037 7.19974 111.986 9.16218 112.004 11.122C110.654 11.2129 109.301 11.1523 107.951 11.1668C106.546 11.147 105.056 11.3289 103.758 10.6792C101.489 9.72231 100.129 7.0943 100.791 4.77074L100.784 4.77339ZM4.42412 6.72528C4.77274 6.35362 5.32156 6.45114 5.78594 6.43269C7.42012 6.45773 9.04613 6.4116 10.6748 6.463C10.6898 6.96514 10.9717 7.75592 10.3439 8.01028C7.79462 9.11868 5.23168 10.1955 2.6701 11.2801C2.00144 11.5437 1.35186 11.9075 0.627369 11.9997C0.262401 11.893 -0.0630729 11.5569 0.0104653 11.1628C0.237889 10.6647 0.68048 10.3062 1.06587 9.92264C2.19754 8.86827 3.27066 7.75197 4.43093 6.72528H4.42412ZM11.7275 6.46168C13.4257 6.43005 15.1321 6.46168 16.8248 6.4406C17.1789 6.46695 17.6051 6.39447 17.8789 6.66728C19.1249 7.79414 20.3138 8.97766 21.5299 10.1335C21.8431 10.4604 22.2108 10.7635 22.381 11.1879C22.4791 11.7599 21.7546 12.2053 21.2439 11.8996C18.1703 10.6739 15.1402 9.3401 12.1007 8.03928C11.4021 7.80732 11.6567 6.9915 11.7275 6.46432" fill="var(--fill-0, #060B13)"/>
</g>
</svg>
