<svg preserveAspectRatio="none" width="100%" height="100%" overflow="visible" style="display: block;" viewBox="0 0 122 12" fill="none" xmlns="http://www.w3.org/2000/svg">
<g id="svg-952605217_4435" clip-path="url(#clip0_0_422)">
<path id="Vector" d="M12.3373 4.07955C12.3373 2.08928 11.007 0.281458 8.48495 0.266778C6.78796 0.266778 1.69699 0.25 0 0.25V11.7701H2.01884V7.92586H7.35948L10.4804 11.7701H12.8796V11.6233L9.63774 7.69517C11.6722 7.25055 12.3451 5.65667 12.3451 4.07955H12.3373ZM2.02664 5.96705V2.28642H8.49276C9.76062 2.28642 10.3263 3.20709 10.3263 4.12778C10.3263 5.04846 9.77623 5.96914 8.49276 5.96914L2.02664 5.96705Z" fill="var(--fill-0, #060B13)"/>
<path id="Vector_2" d="M26.321 0.254195C24.6396 0.254195 19.5642 0.270973 17.8828 0.270973V11.7743H19.8997V8.38516H26.321C31.5641 8.38516 31.5485 0.25 26.321 0.25V0.254195ZM26.321 6.39698H19.8997V2.31997H26.321C28.8879 2.31997 28.9035 6.39698 26.321 6.39698Z" fill="var(--fill-0, #060B13)"/>
<path id="Vector_3" d="M63.2007 5.82314C64.1936 5.34497 64.5915 4.4914 64.5915 3.60218C64.5915 1.29522 63.0174 0.267578 60.9069 0.267578H52.4375V11.7709H60.9069C63.1227 11.7709 64.9114 10.9509 64.9114 8.38596C64.9114 7.66241 64.453 6.2321 63.2007 5.82314ZM54.4232 2.23898H60.9049C62.1903 2.23898 62.5863 3.1261 62.5863 3.65251C62.5863 4.30894 62.1747 4.88568 60.9049 4.88568H54.4252L54.4232 2.23898ZM60.9049 9.75126H54.4252V6.79206H60.9069C61.732 6.79206 62.9101 7.33315 62.9101 8.36918C62.9101 9.45345 61.7398 9.75126 60.9069 9.75126" fill="var(--fill-0, #060B13)"/>
<path id="Vector_4" d="M71.7532 0.267578H69.7344V11.773H80.6498V9.76593H71.7532V0.267578Z" fill="var(--fill-0, #060B13)"/>
<path id="Vector_5" d="M87.4954 0.267578H85.4922V11.773H87.4954V0.267578Z" fill="var(--fill-0, #060B13)"/>
<path id="Vector_6" d="M102.622 8.59344C102.333 8.90217 102.005 9.16489 101.647 9.37361C101.244 9.60346 100.816 9.77819 100.373 9.89372C99.8702 10.0234 99.354 10.0868 98.8365 10.0825C98.1577 10.0945 97.4819 9.98387 96.8371 9.7553C96.3041 9.56238 95.8112 9.25963 95.3859 8.86397C95.0046 8.5016 94.7023 8.05336 94.5004 7.55111C94.3034 7.06113 94.2018 6.53295 94.2019 5.99915C94.2008 5.45983 94.3024 4.92597 94.5004 4.43042C94.7023 3.92818 95.0046 3.47993 95.3859 3.11755C95.8113 2.72189 96.3061 2.42169 96.841 2.23462C97.486 2.01084 98.1608 1.90313 98.8384 1.91584C99.3318 1.91336 99.8239 1.97106 100.305 2.08781C100.732 2.19088 101.147 2.34567 101.542 2.54921C101.897 2.73335 102.226 2.97291 102.517 3.26017C102.692 3.43676 102.851 3.63133 102.991 3.8411L104.692 2.83023C104.476 2.49485 104.228 2.18547 103.95 1.90745C103.557 1.51252 103.117 1.17542 102.642 0.904974C102.113 0.606781 101.55 0.382651 100.968 0.238052C100.304 0.0751899 99.6249 -0.00433789 98.9437 0.00106343C97.9662 -0.0150005 96.9935 0.151038 96.0686 0.491819C95.2918 0.779519 94.5734 1.22445 93.9522 1.80259C93.3977 2.32673 92.9535 2.97195 92.6492 3.69523C92.3449 4.4185 92.1875 5.20322 92.1875 5.99706C92.1875 6.79089 92.3449 7.57561 92.6492 8.29889C92.9535 9.02217 93.3977 9.66738 93.9522 10.1915C94.5728 10.7706 95.2914 11.2156 96.0686 11.5023C96.9894 11.8438 97.9581 12.0119 98.932 11.9993C99.6347 12.0055 100.335 11.9203 101.019 11.7456C101.614 11.591 102.188 11.3534 102.726 11.0388C103.21 10.7574 103.655 10.4044 104.048 9.99019C104.333 9.68635 104.585 9.3478 104.797 8.98142L103.088 7.97475C102.955 8.20232 102.799 8.41333 102.622 8.60392" fill="var(--fill-0, #060B13)"/>
<path id="Vector_7" d="M43.9002 0.253907C43.6733 0.253631 43.4486 0.301435 43.239 0.394587C43.0293 0.487739 42.8388 0.62441 42.6783 0.796788C42.5177 0.969165 42.3904 1.17386 42.3035 1.39919C42.2167 1.62451 42.172 1.86604 42.172 2.10995H45.3923V6.08001C45.3325 6.60757 45.224 7.12744 45.0685 7.63196C44.8666 8.1342 44.5643 8.58245 44.183 8.94482C43.7573 9.34094 43.2636 9.64372 42.7298 9.83615C41.6648 10.2897 40.4789 10.2897 39.4139 9.83615C38.8801 9.64372 38.3864 9.34094 37.9607 8.94482C37.5794 8.58245 37.277 8.1342 37.0751 7.63196C36.9197 7.12744 36.8112 6.60757 36.7513 6.08001V0.253907H34.7579V6.08001C34.7532 6.87369 34.9075 7.65915 35.2105 8.38295C35.5134 9.10674 35.9578 9.75187 36.5134 10.2744C37.135 10.8514 37.8542 11.2943 38.6317 11.5789C40.2164 12.1321 41.9233 12.1321 43.5081 11.5789C44.2853 11.2922 45.0039 10.8472 45.6245 10.2681C46.1801 9.74558 46.6244 9.10044 46.9274 8.37665C47.2303 7.65286 47.3847 6.8674 47.38 6.07372V0.253907H43.9002Z" fill="var(--fill-0, #060B13)"/>
<path id="Vector_8" d="M114.501 2.16138L109.788 11.7709H107.781L113.383 0.338883V0.267578H116.36L121.999 11.7709H119.992L118.794 9.3381H115.203C114.97 9.3381 114.739 9.28868 114.523 9.19267C114.308 9.09665 114.112 8.95592 113.947 8.77851C113.782 8.60109 113.651 8.39047 113.562 8.15867C113.472 7.92687 113.426 7.67843 113.426 7.42753H117.854L115.266 2.16138H114.501Z" fill="var(--fill-0, #060B13)"/>
</g>
<defs>
<clipPath id="clip0_0_422">
<rect width="122" height="12" fill="white"/>
</clipPath>
</defs>
</svg>
