<svg preserveAspectRatio="none" width="100%" height="100%" overflow="visible" style="display: block;" viewBox="0 0 103.983 12.0236" fill="none" xmlns="http://www.w3.org/2000/svg">
<g id="Group">
<path id="Vector" d="M4.76174 11.8366L0 0.207031H2.43919L5.92472 8.88287L9.43084 0.207031H11.87L7.08428 11.8366H4.76174Z" fill="var(--fill-0, #060B13)"/>
<path id="Vector_2" d="M13.969 5.00039H21.1219C20.9147 4.21488 20.4537 3.51648 19.808 3.00993C19.1776 2.50024 18.3844 2.2248 17.5678 2.23194C16.7298 2.21123 15.9116 2.48336 15.259 2.99983C14.6196 3.51187 14.1669 4.21395 13.969 5.00039ZM13.252 10.2814C12.6802 9.7304 12.2286 9.07091 11.9249 8.34307C11.6211 7.61522 11.4715 6.83427 11.4852 6.04782C11.4721 5.26002 11.6194 4.47757 11.9187 3.7465C12.218 3.01542 12.6632 2.35047 13.228 1.79074C13.7754 1.21865 14.439 0.765679 15.1759 0.461107C15.9128 0.156535 16.7066 0.00713971 17.506 0.0225686C19.0672 0.00491161 20.576 0.574969 21.7223 1.6156C22.3172 2.14675 22.7924 2.79417 23.1173 3.51629C23.4423 4.2384 23.6098 5.01926 23.6091 5.8087C23.6111 6.15786 23.5882 6.50674 23.5405 6.85276H13.969C14.0046 7.26281 14.1223 7.66193 14.3154 8.0272C14.5085 8.39247 14.7732 8.71672 15.0943 8.98131C15.7638 9.53757 16.619 9.83143 17.4957 9.80645C18.0265 9.82522 18.5552 9.73111 19.0455 9.53055C19.5358 9.33 19.9761 9.02775 20.3363 8.64451L23.1083 8.66808C22.5929 9.66899 21.8058 10.5106 20.8338 11.0998C19.8565 11.7081 18.7215 12.0274 17.5644 12.0192C16.7627 12.0344 15.9664 11.888 15.2247 11.5891C14.483 11.2902 13.8116 10.8451 13.252 10.2814Z" fill="var(--fill-0, #060B13)"/>
<path id="Vector_3" d="M25.1875 11.8363V5.77396C25.1875 3.91261 25.6449 2.51266 26.5598 1.57413C27.0272 1.10326 27.5906 0.734507 28.2131 0.491923C28.8355 0.249339 29.5031 0.138393 30.1723 0.166332H30.409V2.37907H30.1723C28.402 2.37907 27.5181 3.5107 27.5204 5.77396V11.8363H25.1875Z" fill="var(--fill-0, #060B13)"/>
<path id="Vector_4" d="M37.3413 2.23172C36.8314 2.21592 36.3237 2.30516 35.851 2.49369C35.3783 2.68221 34.9511 2.96584 34.5968 3.3263C33.8921 4.05274 33.499 5.01748 33.499 6.02066C33.499 7.02384 33.8921 7.98858 34.5968 8.71502C34.9461 9.07414 35.3678 9.35785 35.8351 9.54805C36.3023 9.73825 36.8048 9.83077 37.3105 9.8197C37.811 9.83205 38.3086 9.74133 38.7713 9.55339C39.2339 9.36544 39.6513 9.08445 39.9966 8.72849C40.6892 7.99598 41.074 7.03353 41.074 6.03413C41.074 5.03474 40.6892 4.07229 39.9966 3.33977C39.652 2.9827 39.2348 2.70073 38.7721 2.51217C38.3093 2.3236 37.8113 2.23264 37.3105 2.24519L37.3413 2.23172ZM32.9913 1.76694C33.9918 0.781838 35.3094 0.16789 36.7194 0.0297309C38.1295 -0.108428 39.5447 0.237756 40.7238 1.00928C41.9029 1.78081 42.7731 2.92991 43.1858 4.26073C43.5985 5.59155 43.5284 7.0217 42.9873 8.30743C42.4462 9.59315 41.4676 10.6548 40.2184 11.3115C38.9692 11.9682 37.5267 12.1793 36.1367 11.9088C34.7467 11.6382 33.4953 10.9028 32.5958 9.8279C31.6963 8.75297 31.2044 7.40505 31.2039 6.01392C31.1912 5.22379 31.3432 4.43945 31.6506 3.70911C31.9579 2.97876 32.4142 2.31784 32.9913 1.76694Z" fill="var(--fill-0, #060B13)"/>
<path id="Vector_5" d="M55.449 11.8366H52.7971L49.7404 7.67377L46.6837 11.8366H44.0078L48.4128 5.79109L44.3612 0.207031H46.9925L49.7164 3.92861L52.4884 0.207031H55.1197L51.0681 5.79109L55.449 11.8366Z" fill="var(--fill-0, #060B13)"/>
<path id="Vector_6" d="M58.1469 11.801V7.91096H56.0234V6.56379H58.1469V6.14953L58.195 4.73162C58.323 3.31933 58.7736 2.21016 59.5466 1.4041C60.3644 0.579917 61.4646 0.0830471 62.6342 0.00976562V1.43104C61.8591 1.5479 61.1464 1.91673 60.6101 2.47846C60.0522 3.10612 59.7301 3.90253 59.6976 4.73499L59.6496 6.1529V6.56716H63.3855V7.91434H59.6633V11.8044L58.1469 11.801Z" fill="var(--fill-0, #060B13)"/>
<path id="Vector_7" d="M67.3055 0.210938H65.7891V11.8404H67.3055V0.210938Z" fill="var(--fill-0, #060B13)"/>
<path id="Vector_8" d="M79.222 2.77732C78.8024 2.34609 78.2959 2.00538 77.7348 1.77692C77.1737 1.54845 76.5702 1.43723 75.9629 1.45035C75.3528 1.43952 74.747 1.5517 74.1829 1.77995C73.6187 2.0082 73.1083 2.34765 72.6832 2.77732C71.8218 3.64789 71.34 4.81374 71.34 6.02739C71.34 7.24104 71.8218 8.40689 72.6832 9.27746C73.1046 9.7105 73.6124 10.0536 74.1749 10.2854C74.7375 10.5172 75.3426 10.6326 75.9526 10.6246C76.5578 10.6359 77.1589 10.5242 77.718 10.2964C78.2771 10.0686 78.7822 9.72974 79.2014 9.30104C80.0487 8.42068 80.5208 7.25542 80.5208 6.04424C80.5208 4.83306 80.0487 3.66778 79.2014 2.78742L79.222 2.77732ZM71.6163 1.76694C72.6168 0.781838 73.9344 0.16789 75.3444 0.0297309C76.7545 -0.108428 78.1697 0.237756 79.3488 1.00928C80.5279 1.78081 81.398 2.92991 81.8108 4.26073C82.2235 5.59155 82.1533 7.0217 81.6122 8.30743C81.0711 9.59315 80.0926 10.6548 78.8434 11.3115C77.5942 11.9682 76.1516 12.1793 74.7617 11.9088C73.3717 11.6382 72.1203 10.9028 71.2208 9.8279C70.3213 8.75297 69.8294 7.40505 69.8289 6.01392C69.8162 5.22379 69.9682 4.43945 70.2756 3.70911C70.5829 2.97876 71.0392 2.31784 71.6163 1.76694Z" fill="var(--fill-0, #060B13)"/>
<path id="Vector_9" d="M93.9295 2.77732C93.5099 2.34609 93.0034 2.00538 92.4423 1.77692C91.8811 1.54845 91.2777 1.43723 90.6704 1.45035C90.0603 1.43952 89.4545 1.5517 88.8904 1.77995C88.3262 2.0082 87.8158 2.34765 87.3907 2.77732C86.5293 3.64789 86.0475 4.81374 86.0475 6.02739C86.0475 7.24104 86.5293 8.40689 87.3907 9.27746C87.8118 9.71082 88.3196 10.0541 88.8822 10.2859C89.4447 10.5178 90.05 10.633 90.6601 10.6246C91.2649 10.6363 91.8655 10.5247 92.4241 10.2968C92.9827 10.069 93.4871 9.72997 93.9055 9.30104C94.7536 8.42107 95.2261 7.25565 95.2261 6.04424C95.2261 4.83282 94.7536 3.66739 93.9055 2.78742L93.9295 2.77732ZM86.3272 1.76694C87.3277 0.781838 88.6453 0.16789 90.0553 0.0297309C91.4654 -0.108428 92.8806 0.237756 94.0597 1.00928C95.2389 1.78081 96.1089 2.92991 96.5217 4.26073C96.9344 5.59155 96.8643 7.0217 96.3232 8.30743C95.7821 9.59315 94.8035 10.6548 93.5543 11.3115C92.3051 11.9682 90.8626 12.1793 89.4726 11.9088C88.0826 11.6382 86.8312 10.9028 85.9317 9.8279C85.0322 8.75297 84.5403 7.40505 84.5398 6.01392C84.5269 5.22376 84.6788 4.43937 84.9862 3.709C85.2936 2.97862 85.7499 2.31772 86.3272 1.76694Z" fill="var(--fill-0, #060B13)"/>
<path id="Vector_10" d="M98.5469 11.8372V5.80857C98.5469 3.93374 98.9849 2.52257 99.8608 1.57506C100.311 1.10062 100.86 0.728041 101.472 0.483187C102.083 0.238332 102.741 0.127079 103.401 0.157153C103.516 0.155385 103.63 0.16214 103.744 0.17736V1.59863C103.631 1.58037 103.516 1.57247 103.401 1.57506C102.938 1.55628 102.476 1.64324 102.053 1.82907C101.63 2.0149 101.256 2.29456 100.962 2.64606C100.363 3.35782 100.063 4.41199 100.063 5.80857V11.8372H98.5469Z" fill="var(--fill-0, #060B13)"/>
<path id="Vector_11" d="M102.445 10.5443H102.703C102.79 10.5532 102.878 10.5343 102.953 10.4904C102.975 10.4737 102.993 10.4521 103.004 10.4275C103.016 10.4029 103.021 10.376 103.019 10.349C103.02 10.313 103.008 10.2778 102.987 10.2479C102.965 10.2176 102.934 10.1943 102.898 10.1806C102.829 10.1636 102.758 10.1568 102.687 10.1604H102.445V10.5443ZM102.233 11.2684V9.98526H102.687C102.802 9.97912 102.917 9.99048 103.029 10.0189C103.095 10.0427 103.153 10.0863 103.193 10.1435C103.233 10.1989 103.255 10.2646 103.256 10.3321C103.257 10.3778 103.247 10.4232 103.229 10.4654C103.212 10.5077 103.185 10.546 103.152 10.578C103.078 10.6485 102.982 10.6893 102.879 10.6925C102.921 10.7085 102.959 10.7326 102.992 10.7632C103.065 10.8406 103.128 10.9253 103.183 11.0158L103.344 11.2684H103.088L102.97 11.0663C102.916 10.9535 102.84 10.8518 102.747 10.7666C102.698 10.7333 102.639 10.7178 102.579 10.7228H102.445V11.2684H102.233ZM102.769 9.61142C102.594 9.6131 102.423 9.65829 102.271 9.74277C102.111 9.82597 101.977 9.9536 101.89 10.1098C101.8 10.2612 101.752 10.4332 101.752 10.6083C101.753 10.7819 101.799 10.9524 101.886 11.1034C101.974 11.2587 102.105 11.3861 102.264 11.4705C102.416 11.5587 102.592 11.6053 102.769 11.6053C102.946 11.6053 103.119 11.5587 103.272 11.4705C103.431 11.3861 103.562 11.2587 103.65 11.1034C103.734 10.9515 103.779 10.7814 103.78 10.6083C103.78 10.4336 103.734 10.2618 103.646 10.1098C103.558 9.9543 103.425 9.82691 103.265 9.74277C103.12 9.66153 102.956 9.61645 102.788 9.61142H102.769ZM102.769 9.41607C102.978 9.41682 103.183 9.46893 103.366 9.56764C103.557 9.66929 103.715 9.8223 103.821 10.0088C103.925 10.1921 103.981 10.3983 103.982 10.6083C103.983 10.8164 103.927 11.021 103.821 11.2011C103.718 11.3889 103.562 11.5434 103.372 11.6456C103.187 11.7471 102.98 11.8004 102.769 11.8004C102.557 11.8004 102.349 11.7471 102.164 11.6456C101.978 11.5396 101.826 11.3844 101.725 11.1977C101.618 11.0164 101.562 10.8109 101.562 10.6016C101.562 10.3923 101.618 10.1867 101.725 10.0055C101.831 9.81893 101.99 9.66592 102.181 9.56427C102.368 9.46508 102.577 9.41408 102.788 9.41607H102.769Z" fill="var(--fill-0, #060B13)"/>
</g>
</svg>
