<svg preserveAspectRatio="none" width="100%" height="100%" overflow="visible" style="display: block;" viewBox="0 0 67 19" fill="none" xmlns="http://www.w3.org/2000/svg">
<g id="CDEK_logo 3" clip-path="url(#clip0_0_50)">
<path id="Vector" fill-rule="evenodd" clip-rule="evenodd" d="M10.4982 14.1205H7.60907C3.1021 14.1205 6.37641 4.52013 10.1707 4.52013H14.7355C15.4674 4.52013 16.7579 4.65537 17.3935 2.83958L18.3757 0.0193466H12.116C8.72622 0.0193466 6.08748 1.21698 4.1807 3.22592C0.887136 6.66427 -0.229976 12.0343 0.559709 14.6034C1.31087 16.9794 3.3525 18.544 6.54974 18.5827L9.03437 18.602H12.0968L12.848 16.3419C13.4065 14.7387 12.1546 14.1205 10.4982 14.1205ZM45.668 10.1413L46.6117 7.06995H36.5385C34.8628 7.06995 34.1116 7.53355 33.8228 8.49935L32.879 11.5707H42.9523C44.6279 11.5707 45.3791 11.1071 45.668 10.1413ZM31.3767 15.55L30.4329 18.6213H40.5062C42.1626 18.6213 42.933 18.1577 43.2219 17.1919L44.1657 14.1205H34.0924C32.436 14.1205 31.6848 14.5841 31.3767 15.55ZM48.0177 3.11002L48.9618 0.0386631H38.8883C37.2126 0.0386631 36.4614 0.502263 36.1726 1.4681L35.2288 4.53945H45.3021C46.9587 4.53945 47.7095 4.07585 48.0177 3.11002ZM32.802 3.72815C32.3782 0.869283 30.8566 0.0386631 27.1586 0.0386631H20.4174L16.4882 11.5707H18.9728C20.4559 11.5707 21.2071 11.59 21.9967 9.4652L23.6339 4.52013H26.1378C28.2757 4.52013 27.7942 7.20517 26.7156 9.8129C25.7526 12.1116 24.0769 14.1398 22.0545 14.1398H17.875C16.1993 14.1398 15.4289 14.6034 15.1207 15.5693L14.0806 18.6406H17.1431L20.1477 18.6213C22.8057 18.602 24.9821 18.4088 27.5245 16.1101C30.221 13.6569 33.3412 7.35967 32.802 3.72815ZM66.6622 0.0193466H60.8263L55.3369 5.8723C54.7011 6.54837 54.0464 7.22445 53.4106 8.01647H53.3528L56.0878 0.0193466H51.3308L44.9168 18.6213H49.6743L51.7157 12.7684L53.8343 10.9719L55.5102 16.2647C56.03 17.9066 56.5697 18.6213 57.7254 18.6213H61.3655L57.6288 8.22895L66.6622 0.0193466Z" fill="var(--fill-0, #00B33C)"/>
</g>
<defs>
<clipPath id="clip0_0_50">
<rect width="67" height="19" fill="white"/>
</clipPath>
</defs>
</svg>
