<svg preserveAspectRatio="none" width="100%" height="100%" overflow="visible" style="display: block;" viewBox="0 0 19.3432 22.0737" fill="none" xmlns="http://www.w3.org/2000/svg">
<g id="split icon">
<g id="Group 1077239337">
<mask id="mask0_0_82" style="mask-type:alpha" maskUnits="userSpaceOnUse" x="0" y="0" width="20" height="23">
<path id="form" fill-rule="evenodd" clip-rule="evenodd" d="M18.3002 17.6218C18.3165 17.6287 18.3247 17.6323 18.3244 17.6323C18.317 17.6389 18.3096 17.6456 18.302 17.6524C18.3256 17.663 18.3376 17.6686 18.3372 17.669C18.3333 17.6726 18.3293 17.6763 18.3253 17.68C18.3432 17.6883 18.3523 17.6927 18.352 17.693C18.3447 17.6995 18.3371 17.7063 18.3294 17.7132C18.3366 17.7165 18.3425 17.7192 18.3469 17.7212C18.3539 17.7245 18.3574 17.7261 18.3572 17.7261C18.3513 17.7315 18.3452 17.7371 18.3388 17.7429C18.3657 17.7557 18.3795 17.7625 18.3792 17.7629C18.3737 17.7679 18.3679 17.7732 18.3618 17.7786C18.3846 17.7897 18.3962 17.7956 18.3958 17.796L18.3922 17.7992L18.3902 17.801L18.3854 17.8054C18.4001 17.8126 18.4075 17.8163 18.4072 17.8163C18.3995 17.8231 18.3909 17.8306 18.3818 17.8386C18.4071 17.8515 18.4201 17.8582 18.4197 17.8585L18.4166 17.8614L18.414 17.8639C18.4118 17.8659 18.4095 17.868 18.4072 17.8702C18.4316 17.8828 18.4441 17.8896 18.4438 17.8898C18.4387 17.8945 18.4331 17.8996 18.4271 17.9049L18.4356 17.9094C18.4384 17.9108 18.4406 17.912 18.4424 17.913C18.4457 17.9147 18.4473 17.9156 18.4472 17.9156L18.4265 17.9344C18.4501 17.9472 18.4622 17.9539 18.462 17.9542L18.447 17.9673C18.468 17.979 18.4788 17.9852 18.4785 17.9855L18.4761 17.9877L18.4669 17.9963C18.4718 17.999 18.476 18.0014 18.4794 18.0033C18.483 18.0053 18.4856 18.0068 18.4874 18.0078C18.4893 18.0088 18.4901 18.0094 18.4901 18.0094L18.4678 18.0293C18.4908 18.0426 18.5025 18.0496 18.5023 18.0499L18.4876 18.0629C18.5076 18.0747 18.5178 18.0809 18.5175 18.0812L18.5022 18.0945C18.5102 18.0994 18.5165 18.1033 18.5211 18.1061C18.5274 18.1101 18.5306 18.1122 18.5304 18.1124L18.5159 18.1252C18.5354 18.1372 18.5454 18.1435 18.5452 18.1437L18.5245 18.1624C18.5467 18.1765 18.5581 18.1839 18.5579 18.1842L18.5488 18.1921C18.5645 18.2024 18.5726 18.2078 18.5724 18.2081L18.5556 18.2228C18.5718 18.2336 18.5801 18.2392 18.58 18.2394L18.5687 18.2493C18.5896 18.2632 18.6003 18.2705 18.6001 18.2707L18.5905 18.2791C18.6066 18.2902 18.6147 18.2961 18.6146 18.2964C18.6103 18.3005 18.6038 18.3063 18.5957 18.3135C18.6158 18.3275 18.6261 18.3349 18.626 18.3351L18.6074 18.3512C18.6246 18.3634 18.6333 18.3699 18.6332 18.37L18.6209 18.3808C18.6436 18.3976 18.6554 18.4064 18.6552 18.4068L18.6479 18.4133C18.6543 18.4181 18.6592 18.4217 18.6626 18.4243C18.6665 18.4273 18.6684 18.4288 18.6684 18.4289L18.6529 18.4429C18.6628 18.4505 18.6697 18.4559 18.6736 18.4589C18.6761 18.4609 18.6773 18.4619 18.6772 18.4619L18.6676 18.4703C18.6862 18.4851 18.6958 18.4929 18.6957 18.4933L18.6832 18.5043C18.689 18.509 18.6939 18.5128 18.6977 18.5159C18.7021 18.5195 18.7052 18.5219 18.7069 18.5233C18.7079 18.5241 18.7084 18.5245 18.7083 18.5246C18.708 18.5247 18.7055 18.5269 18.7012 18.5306C18.7157 18.5423 18.7231 18.5484 18.7231 18.5485L18.7062 18.5634C18.7263 18.5801 18.7367 18.5888 18.7365 18.589L18.7276 18.5969C18.7457 18.6122 18.755 18.6201 18.7549 18.6202L18.7444 18.6295C18.7611 18.6439 18.7697 18.6514 18.7697 18.6515L18.7562 18.6634L18.7783 18.6828L18.7667 18.6931C18.7832 18.708 18.7918 18.7158 18.7917 18.7159L18.7819 18.7246C18.7923 18.7342 18.7994 18.7408 18.8032 18.7443C18.8052 18.7462 18.8063 18.7471 18.8063 18.7472L18.8006 18.7521L18.8285 18.7784L18.8143 18.791L18.8338 18.8097L18.823 18.8192L18.8469 18.8428L18.8361 18.8523L18.8595 18.8759L18.6074 19.1041C16.4606 21.1046 13.6069 22.1703 10.6742 22.0668C7.74157 21.9633 4.97014 20.699 2.96963 18.5521C0.969115 16.4053 -0.0966131 13.5516 0.00689254 10.6189C0.102751 7.90293 1.19419 5.32523 3.06028 3.3701C3.26326 3.15255 3.47833 2.94269 3.7055 2.74139L3.71244 2.73555L3.72075 2.72857C3.90599 2.57128 4.09616 2.42065 4.29082 2.27675L4.30562 2.26571C4.43575 2.16781 4.56775 2.07304 4.70151 1.98141C6.69641 0.603721 9.09581 -0.0950672 11.54 0.0104105C12.4562 0.0499505 13.3564 0.201548 14.2223 0.45699C15.2566 0.755506 16.257 1.20717 17.1874 1.81602C17.8606 2.25251 18.4964 2.77232 19.0805 3.37793C19.0817 3.37941 19.0829 3.38117 19.0841 3.38321L19.0861 3.38531C19.0879 3.38761 19.0893 3.39116 19.0899 3.39599C19.0944 3.4032 19.0992 3.41257 19.1034 3.4246C19.2141 3.63361 19.2666 4.76693 11.1289 11.0741L17.1185 17.1189C17.8496 17.4184 18.3134 17.6096 18.311 17.612C18.3074 17.6152 18.3038 17.6185 18.3002 17.6218Z" fill="var(--fill-0, white)"/>
</mask>
<g mask="url(#mask0_0_82)">
<circle id="shadow" cx="11.0644" cy="11.0092" r="11.0385" fill="url(#paint0_radial_0_82)"/>
</g>
</g>
<path id="Vector" d="M14.3133 8.531C12.7845 9.79491 10.7792 11.3771 8.15385 13.3327C10.1794 15.4337 12.3521 17.1336 14.3115 18.1547C16.2708 19.1758 17.8346 19.3855 18.5742 18.7177C19.3137 18.0498 19.2291 16.51 18.3423 14.5083C17.5218 12.6447 16.1034 10.5492 14.3133 8.531Z" fill="url(#paint1_linear_0_82)"/>
<path id="Vector_2" d="M14.4863 8.38755L13.6584 9.06641C15.1934 10.7477 16.4532 12.6364 17.4286 14.6911C18.2844 16.6541 18.2635 17.6391 17.9875 17.8862C17.7116 18.1333 16.5204 18.196 14.6167 17.1901C12.5079 15.9984 10.6303 14.4866 8.99465 12.7036L8.04534 13.41L8.24884 13.6086C12.2135 17.6913 16.503 20.0163 18.3892 19.1705C18.4451 19.1427 18.522 19.1148 18.5744 19.0835C18.6473 19.0384 18.7163 18.9872 18.7805 18.9303C18.8485 18.8691 18.9105 18.8015 18.9656 18.7285C20.1987 17.117 18.3264 12.7768 14.5958 8.52353L14.4863 8.38755Z" fill="var(--fill-0, #84EEB1)"/>
</g>
<defs>
<radialGradient id="paint0_radial_0_82" cx="0" cy="0" r="1" gradientUnits="userSpaceOnUse" gradientTransform="translate(15.2314 -8.4737) rotate(102.854) scale(60.036 36.3775)">
<stop offset="0.0429089" stop-color="#0D9B43"/>
<stop offset="0.171768" stop-color="#48F56D"/>
<stop offset="0.218373" stop-color="#43EA68"/>
<stop offset="0.309234" stop-color="#37CB5A"/>
<stop offset="0.429804" stop-color="#239A44"/>
<stop offset="0.482217" stop-color="#1F9140"/>
<stop offset="0.50288" stop-color="#0BA446"/>
<stop offset="0.73" stop-color="#085625"/>
<stop offset="0.8" stop-color="#00421C"/>
</radialGradient>
<linearGradient id="paint1_linear_0_82" x1="15.1909" y1="26.4906" x2="11.1122" y2="-2.72823" gradientUnits="userSpaceOnUse">
<stop offset="0.1" stop-color="#FF8475"/>
<stop offset="0.37" stop-color="#E84E43"/>
<stop offset="0.6" stop-color="#D6261F"/>
<stop offset="0.79" stop-color="#CC0E08"/>
<stop offset="0.9" stop-color="#C80500"/>
</linearGradient>
</defs>
</svg>
