<svg preserveAspectRatio="none" width="100%" height="100%" overflow="visible" style="display: block;" viewBox="0 0 56 28" fill="none" xmlns="http://www.w3.org/2000/svg">
<g id="&#208;&#161;&#208;&#145;&#208;&#159;_&#208;&#187;&#208;&#190;&#208;&#179;&#208;&#190;&#209;&#130;&#208;&#184;&#208;&#191; 3" clip-path="url(#clip0_0_60)">
<path id="path60" d="M48.4235 7.99253V14.8381H45.9689V10.0361H43.6054V14.8381H41.1508V7.99206H48.4235V7.99253Z" fill="var(--fill-0, black)"/>
<path id="path62" fill-rule="evenodd" clip-rule="evenodd" d="M36.1096 15.0828C38.307 15.0828 39.9387 13.7412 39.9387 11.7072C39.9387 9.73856 38.7348 8.46036 36.7228 8.46036C35.7942 8.46036 35.028 8.78586 34.4509 9.34749C34.5887 8.18666 35.5744 7.33919 36.6598 7.33919C36.9102 7.33919 38.796 7.33523 38.796 7.33523L39.8623 5.30313C39.8623 5.30313 37.4948 5.35679 36.3943 5.35679C33.8797 5.40043 32.1812 7.6766 32.1812 10.4411C32.1812 13.6618 33.8377 15.0828 36.1096 15.0828ZM36.123 10.2603C36.9388 10.2603 37.5044 10.7942 37.5044 11.707C37.5044 12.5285 37.0019 13.2054 36.123 13.2073C35.2823 13.2073 34.7166 12.5801 34.7166 11.721C34.7166 10.8079 35.2823 10.2603 36.123 10.2603Z" fill="var(--fill-0, black)"/>
<path id="path64" d="M30.1832 12.5463C30.1832 12.5463 29.6035 12.879 28.7378 12.942C27.7424 12.9714 26.8555 12.3454 26.8555 11.2331C26.8555 10.1481 27.6381 9.52623 28.7127 9.52623C29.3716 9.52623 30.2432 9.98099 30.2432 9.98099C30.2432 9.98099 30.881 8.81549 31.2114 8.23263C30.6064 7.77599 29.8006 7.52563 28.8633 7.52563C26.498 7.52563 24.6659 9.06143 24.6659 11.2193C24.6659 13.4047 26.3879 14.9048 28.8633 14.8595C29.5553 14.8339 30.5098 14.5919 31.0916 14.2197L30.1832 12.5463Z" fill="var(--fill-0, black)"/>
<path id="path66" d="M0 6.09467L3.40499 12.1555V15.8524L0.00398326 21.9014L0 6.09467Z" fill="var(--fill-0, #5B57A2)"/>
<path id="path68" d="M13.0738 9.95003L16.2644 8.00263L22.7941 7.99657L13.0738 13.9265V9.95003Z" fill="var(--fill-0, #D90751)"/>
<path id="path70" d="M13.0557 6.05897L13.0738 14.0833L9.66082 11.995V0L13.0557 6.05897Z" fill="var(--fill-0, #FAB718)"/>
<path id="path72" d="M22.7941 7.99657L16.2641 8.00263L13.0557 6.05897L9.66082 0L22.7941 7.99657Z" fill="var(--fill-0, #ED6F26)"/>
<path id="path74" d="M13.0738 21.935V18.0418L9.66082 15.9931L9.66269 28L13.0738 21.935Z" fill="var(--fill-0, #63B22F)"/>
<path id="path76" d="M16.2564 20.0053L3.40475 12.1555L0 6.09467L22.7803 19.9974L16.2564 20.0053Z" fill="var(--fill-0, #1487C9)"/>
<path id="path78" d="M9.66293 28L13.0735 21.935L16.2562 20.0053L22.78 19.9974L9.66293 28Z" fill="var(--fill-0, #017F36)"/>
<path id="path80" d="M0.00398326 21.9014L9.6887 15.9934L6.43274 14.004L3.40499 15.8524L0.00398326 21.9014Z" fill="var(--fill-0, #984995)"/>
<path id="path82" d="M26.8562 19.4452C26.7813 19.5404 26.6826 19.6123 26.5643 19.6608C26.4429 19.71 26.313 19.7351 26.1819 19.7346C26.0515 19.7363 25.9219 19.7147 25.7993 19.6706C25.6891 19.6308 25.5884 19.5687 25.5036 19.4882C25.4198 19.4075 25.354 19.3102 25.3105 19.2026C25.2634 19.0846 25.2399 18.9587 25.2414 18.8318C25.2414 18.7058 25.2632 18.5891 25.3084 18.4785C25.3517 18.3677 25.4148 18.2727 25.4937 18.1929C25.5727 18.1115 25.6674 18.0494 25.7737 18.0009C25.8822 17.9542 26.0005 17.929 26.1306 17.929C26.2707 17.929 26.4007 17.9465 26.5191 17.9813C26.6374 18.0163 26.7379 18.0746 26.8206 18.1563L26.6768 18.399C26.6072 18.3362 26.5252 18.2885 26.4361 18.259C26.3514 18.2318 26.2629 18.2181 26.1739 18.2184C26.0952 18.2184 26.0202 18.2338 25.9474 18.2629C25.8755 18.2917 25.8099 18.3339 25.7541 18.3873C25.6969 18.4422 25.6519 18.5083 25.6219 18.5814C25.5884 18.657 25.5727 18.7406 25.5727 18.8337C25.5727 18.9289 25.5903 19.0143 25.6238 19.088C25.6575 19.1638 25.7027 19.228 25.7599 19.2821C25.8171 19.3367 25.8841 19.3773 25.9609 19.4046C26.038 19.4338 26.1189 19.4473 26.2056 19.4473C26.3119 19.4473 26.4087 19.4259 26.4914 19.385C26.5734 19.3456 26.647 19.291 26.7084 19.224L26.8562 19.4452ZM27.2623 19.6937V17.9659H27.5739V19.2532L28.5873 17.9659H28.899V19.694H28.5873V18.4067L27.5739 19.694L27.2623 19.6937ZM30.9632 19.4452C30.8866 19.5412 30.786 19.6156 30.6715 19.6608C30.55 19.71 30.42 19.7351 30.2889 19.7346C30.1586 19.7363 30.0291 19.7146 29.9065 19.6706C29.7963 19.6308 29.6955 19.5687 29.6106 19.4882C29.5268 19.4075 29.461 19.3102 29.4175 19.2026C29.3704 19.0846 29.3469 18.9587 29.3484 18.8318C29.3484 18.7058 29.3702 18.5891 29.4154 18.4785C29.459 18.3677 29.522 18.2727 29.6007 18.1929C29.6797 18.1115 29.7743 18.0494 29.8807 18.0009C29.9931 17.9516 30.1148 17.9271 30.2376 17.929C30.3777 17.929 30.5077 17.9465 30.6261 17.9813C30.7444 18.0163 30.8449 18.0746 30.9278 18.1563L30.7837 18.399C30.7143 18.3361 30.6324 18.2884 30.5433 18.259C30.4586 18.2318 30.3701 18.2181 30.2812 18.2184C30.1245 18.2189 29.9741 18.2794 29.861 18.3873C29.8044 18.4426 29.7595 18.5086 29.7289 18.5814C29.6954 18.657 29.6797 18.7406 29.6797 18.8337C29.6797 18.9289 29.6975 19.0143 29.731 19.088C29.7645 19.1638 29.8097 19.228 29.8669 19.2821C29.9241 19.3367 29.9913 19.3773 30.0682 19.4046C30.145 19.4317 30.2259 19.4473 30.3125 19.4473C30.4192 19.4473 30.5138 19.4259 30.5984 19.385C30.6804 19.3456 30.754 19.291 30.8154 19.224L30.9632 19.4452ZM31.123 17.9659H32.722V18.2727H32.0792V19.6937H31.7676V18.2727H31.1249V17.9659H31.123Z" fill="var(--fill-0, black)"/>
<path id="path84" fill-rule="evenodd" clip-rule="evenodd" d="M34.1772 19.6765C34.2956 19.6396 34.3961 19.5831 34.4828 19.5057L34.3881 19.2649C34.331 19.3155 34.2541 19.3582 34.1616 19.3932C34.0688 19.4282 33.9643 19.4455 33.8499 19.4455C33.6784 19.4455 33.5364 19.4009 33.4239 19.3097C33.3117 19.2182 33.2506 19.0903 33.2367 18.927H34.5854C34.5992 18.8668 34.6051 18.7989 34.6051 18.7193C34.6051 18.6008 34.5833 18.4942 34.54 18.3971C34.4996 18.3028 34.4406 18.2176 34.3666 18.1465C34.2915 18.076 34.203 18.0213 34.1063 17.9855C34.005 17.9464 33.8973 17.9266 33.7888 17.9272C33.6428 17.9272 33.5146 17.9524 33.4024 17.999C33.2963 18.0435 33.2003 18.1089 33.1203 18.1913C33.0426 18.2733 32.9829 18.3704 32.945 18.4767C32.9034 18.5898 32.8826 18.7095 32.8839 18.8299C32.8839 18.966 32.9075 19.0901 32.9509 19.2009C32.993 19.3083 33.0576 19.4055 33.1402 19.4863C33.221 19.5656 33.3194 19.6261 33.4359 19.6688C33.5606 19.7128 33.6921 19.7344 33.8244 19.7327C33.9442 19.732 34.0632 19.7128 34.1772 19.6765ZM33.3886 18.3465C33.4851 18.2592 33.6133 18.2165 33.7749 18.2165C33.9268 18.2165 34.0491 18.2573 34.1379 18.339C34.2267 18.4204 34.2738 18.5331 34.2818 18.6766H33.2171C33.2321 18.5496 33.2931 18.4321 33.3886 18.3465Z" fill="var(--fill-0, black)"/>
<path id="path86" d="M35.029 17.9659H35.3129L35.9873 18.8222L36.626 17.9659H36.902V19.694H36.5906V18.434L35.9833 19.2357H35.9714L35.3406 18.4337V19.6937H35.029V17.9659Z" fill="var(--fill-0, black)"/>
<path id="path88" fill-rule="evenodd" clip-rule="evenodd" d="M37.7498 17.9717C37.6552 17.9963 37.5648 18.0349 37.4817 18.0861L37.5644 18.3311C37.6354 18.2961 37.7064 18.2669 37.7774 18.2417C37.8484 18.2163 37.9391 18.2046 38.0476 18.2046C38.1343 18.2046 38.2034 18.2184 38.2566 18.2454C38.3098 18.2706 38.3491 18.3096 38.3768 18.3563C38.4044 18.4029 38.4222 18.461 38.4321 18.5289C38.4419 18.5968 38.4459 18.6706 38.4459 18.7504C38.3821 18.7061 38.3095 18.6763 38.2329 18.6629C38.1589 18.6482 38.0837 18.6404 38.0082 18.6395C37.9154 18.6395 37.8287 18.6533 37.7458 18.6764C37.6631 18.6997 37.5921 18.7347 37.5349 18.7814C37.4765 18.828 37.4294 18.887 37.3969 18.9541C37.3622 19.0275 37.3446 19.1079 37.3456 19.189C37.3456 19.358 37.395 19.49 37.4934 19.5834C37.5921 19.6765 37.7221 19.7229 37.8838 19.7229C38.0298 19.7229 38.1462 19.6977 38.2348 19.6473C38.3236 19.5967 38.3946 19.5386 38.4459 19.4725V19.6958H38.7376V18.6358C38.7376 18.4104 38.6884 18.2359 38.5879 18.1134C38.4893 17.9911 38.3138 17.929 38.0654 17.929C37.9548 17.929 37.8503 17.9444 37.7498 17.9717ZM38.2706 19.3717C38.1996 19.4221 38.1069 19.4452 37.9925 19.4452C37.892 19.4452 37.813 19.42 37.758 19.3715C37.7027 19.3211 37.675 19.2551 37.675 19.1734C37.675 19.1251 37.6849 19.0843 37.7067 19.0474C37.7284 19.0105 37.758 18.9814 37.7915 18.958C37.8281 18.9336 37.8688 18.9159 37.9117 18.9055C37.9571 18.8939 38.0024 18.888 38.0497 18.888C38.2036 18.888 38.3355 18.9249 38.444 19.0026V19.2219C38.3929 19.279 38.3346 19.3295 38.2706 19.3717ZM41.4884 17.3581C41.5514 17.3291 41.6105 17.2806 41.6658 17.2087L41.4961 16.9661C41.4528 17.0244 41.4036 17.065 41.3483 17.0865C41.2897 17.1093 41.2289 17.1262 41.1669 17.1369L41.1079 17.1474C41.0566 17.1562 41.0015 17.166 40.9422 17.1758C40.8472 17.1933 40.7545 17.222 40.6662 17.2612C40.5261 17.3214 40.4139 17.4029 40.329 17.5058C40.2442 17.6087 40.1772 17.7251 40.1318 17.8534C40.0857 17.9834 40.0547 18.1182 40.0392 18.2552C40.0233 18.3952 40.0155 18.5289 40.0155 18.657C40.0155 18.8222 40.0371 18.9716 40.0804 19.1055C40.124 19.2397 40.1849 19.3521 40.2658 19.4434C40.3466 19.5367 40.4434 19.6067 40.5577 19.6571C40.6721 19.7075 40.8002 19.7327 40.9441 19.7327C41.0763 19.7327 41.1986 19.7075 41.3089 19.6608C41.4153 19.616 41.5118 19.5507 41.5929 19.4688C41.6716 19.389 41.7349 19.2938 41.7783 19.1872C41.8235 19.0803 41.8453 18.9657 41.8453 18.8453C41.8453 18.7154 41.8256 18.5971 41.7881 18.4921C41.7536 18.392 41.6985 18.3001 41.6264 18.2223C41.5542 18.1459 41.466 18.0861 41.368 18.0473C41.2601 18.005 41.1449 17.9839 41.0289 17.9853C40.954 17.9853 40.8811 17.9951 40.8101 18.0144C40.741 18.0338 40.6747 18.0619 40.6128 18.098C40.5527 18.1322 40.4977 18.1746 40.4493 18.224C40.4019 18.2727 40.3626 18.3271 40.3349 18.3892H40.3269C40.333 18.3096 40.3429 18.2282 40.3604 18.1446C40.3783 18.0611 40.4038 17.9813 40.4375 17.9057C40.471 17.8301 40.5144 17.762 40.5676 17.6999C40.6246 17.6372 40.6945 17.5876 40.7726 17.5543C40.8584 17.5136 40.9493 17.4842 41.0428 17.467L41.1046 17.4558C41.1662 17.4446 41.225 17.4339 41.2813 17.4222C41.3563 17.4068 41.4251 17.387 41.4884 17.3581ZM40.3921 19.0182C40.3616 18.9202 40.347 18.818 40.3487 18.7154C40.3619 18.6565 40.386 18.6005 40.4197 18.5504C40.4532 18.4979 40.4966 18.4515 40.5479 18.4104C40.6637 18.3201 40.8069 18.2715 40.954 18.2727C41.1374 18.2727 41.2754 18.329 41.372 18.4398C41.4687 18.5523 41.5161 18.692 41.5161 18.861C41.5161 18.9445 41.5001 19.0203 41.4727 19.0901C41.4461 19.1589 41.4058 19.2217 41.3543 19.2747C41.3029 19.3278 41.2412 19.3699 41.173 19.3988C41.102 19.4298 41.0249 19.4455 40.9383 19.4455C40.8516 19.4455 40.7726 19.428 40.6997 19.393C40.6273 19.3587 40.5633 19.309 40.5123 19.2474C40.4588 19.1787 40.4181 19.1011 40.3921 19.0182ZM44.235 17.9659H43.9234V19.694H44.235V17.9659ZM42.2947 17.9659H42.6063V18.4844H42.8943C43.0302 18.4844 43.1405 18.5019 43.2293 18.5348C43.3181 18.5679 43.3891 18.6125 43.4423 18.6668C43.4955 18.7212 43.533 18.7854 43.5548 18.857C43.5763 18.9289 43.5883 19.0026 43.5883 19.0803C43.5883 19.158 43.5763 19.232 43.5508 19.3057C43.5271 19.3794 43.4857 19.4434 43.4304 19.5017C43.3753 19.56 43.3003 19.6067 43.2057 19.6417C43.111 19.6765 42.9967 19.6958 42.8587 19.6958H42.2928V17.9659H42.2947ZM42.6063 18.7735V19.4065H42.8331C42.9889 19.4065 43.0993 19.3794 43.1623 19.3248C43.2256 19.2705 43.257 19.193 43.257 19.0901C43.257 18.9851 43.2235 18.9058 43.1604 18.8512C43.0953 18.7968 42.9868 18.7695 42.8371 18.7695H42.6063V18.7735Z" fill="var(--fill-0, black)"/>
<path id="path90" d="M46.2955 19.4452C46.2205 19.5404 46.1219 19.6123 46.0036 19.6608C45.8821 19.71 45.7522 19.7351 45.6212 19.7346C45.4908 19.7363 45.3612 19.7147 45.2385 19.6706C45.1283 19.6308 45.0277 19.5687 44.9428 19.4882C44.859 19.4075 44.7932 19.3102 44.7495 19.2026C44.7026 19.0846 44.6792 18.9587 44.6806 18.8318C44.6806 18.7058 44.7022 18.5891 44.7477 18.4785C44.791 18.3677 44.854 18.2727 44.933 18.1929C45.012 18.1115 45.1064 18.0494 45.213 18.0009C45.3254 17.9516 45.4471 17.9271 45.5699 17.929C45.7097 17.929 45.84 17.9465 45.9583 17.9813C46.0767 18.0163 46.1772 18.0746 46.2599 18.1563L46.116 18.399C46.0464 18.3362 45.9645 18.2885 45.8754 18.259C45.7907 18.2318 45.7022 18.2181 45.6132 18.2184C45.5345 18.2184 45.4595 18.2338 45.3864 18.2629C45.3147 18.2917 45.2491 18.334 45.1933 18.3873C45.1366 18.4425 45.0917 18.5085 45.0612 18.5814C45.0277 18.657 45.012 18.7406 45.012 18.8337C45.012 18.9289 45.0295 19.0143 45.063 19.088C45.0965 19.1638 45.142 19.228 45.1992 19.2821C45.2563 19.3367 45.3234 19.3773 45.4002 19.4046C45.4773 19.4317 45.5581 19.4473 45.6448 19.4473C45.7512 19.4473 45.8459 19.4259 45.9307 19.385C46.0126 19.3456 46.0863 19.291 46.1477 19.224L46.2955 19.4452ZM46.4551 17.9659H48.0542V18.2727H47.4113V19.6937H47.0999V18.2727H46.4572V17.9659H46.4551Z" fill="var(--fill-0, black)"/>
<path id="path92" fill-rule="evenodd" clip-rule="evenodd" d="M48.7049 17.9661H48.3933V20.4628H48.7049V19.6144C48.7679 19.6552 48.8429 19.6844 48.9296 19.7038C49.0163 19.7231 49.107 19.7327 49.1998 19.7327C49.3378 19.7327 49.462 19.7075 49.5744 19.6611C49.6823 19.6151 49.7801 19.5485 49.8622 19.4651C49.943 19.3813 50.0042 19.2842 50.0475 19.1697C50.0909 19.0553 50.1127 18.9328 50.1127 18.8029C50.1127 18.6745 50.093 18.5562 50.0555 18.4494C50.0202 18.3479 49.9653 18.2543 49.8938 18.1738C49.8237 18.0953 49.7367 18.0336 49.6393 17.9932C49.5329 17.9477 49.418 17.9251 49.3022 17.9272C49.1801 17.9272 49.0658 17.9505 48.9573 17.9972C48.8488 18.0438 48.764 18.0998 48.7049 18.1698V17.9661ZM48.9219 18.2865C49.0107 18.2398 49.1072 18.2165 49.2117 18.2165C49.3024 18.2165 49.3832 18.23 49.4563 18.2592C49.5273 18.2884 49.5864 18.3292 49.6358 18.3836C49.685 18.4379 49.7225 18.5002 49.7462 18.5737C49.7717 18.6475 49.7837 18.7273 49.7837 18.8145C49.7837 18.9079 49.7677 18.9912 49.7403 19.0689C49.7145 19.1425 49.6735 19.21 49.6199 19.267C49.5661 19.3232 49.5009 19.3675 49.4287 19.3969C49.3482 19.4305 49.2615 19.447 49.1742 19.4455C49.0897 19.4455 49.0107 19.4359 48.9357 19.4165C48.8536 19.3943 48.7757 19.3588 48.7052 19.3115V18.4552C48.7602 18.3894 48.8333 18.3332 48.9219 18.2865ZM52.5024 17.9659H52.1907V19.694H52.5024V17.9659ZM50.5602 17.9659H50.8718V18.4844H51.1595C51.2957 18.4844 51.406 18.5019 51.4948 18.5348C51.5836 18.5679 51.6546 18.6125 51.7078 18.6668C51.761 18.7212 51.7985 18.7854 51.8201 18.857C51.8419 18.9289 51.8536 19.0026 51.8536 19.0803C51.8536 19.158 51.8419 19.232 51.8163 19.3057C51.7926 19.3794 51.7512 19.4434 51.6959 19.5017C51.6408 19.56 51.5658 19.6067 51.4712 19.6417C51.3765 19.6765 51.2622 19.6958 51.1242 19.6958H50.5583V17.9659H50.5602ZM50.8739 18.7735V19.4065H51.1007C51.2563 19.4065 51.3669 19.3794 51.4299 19.3248C51.493 19.2705 51.5246 19.193 51.5246 19.0901C51.5246 18.9851 51.4911 18.9058 51.4281 18.8512C51.3629 18.7968 51.2544 18.7695 51.1047 18.7695H50.8739V18.7735Z" fill="var(--fill-0, black)"/>
<path id="path94" d="M53.997 18.7989L54.6634 19.694H54.281L53.7662 18.9949L53.2437 19.694H52.881L53.5434 18.8143L52.9204 17.9659H53.303L53.7782 18.6183L54.2611 17.9659H54.624L53.997 18.7989ZM26.6257 21.8297H25.6695V23.2703H25.3578V21.5424H26.9371V23.2703H26.6257V21.8297ZM28.7057 21.849H28.0906L28.0707 22.1402C28.0491 22.3869 28.0196 22.585 27.9781 22.7362C27.9366 22.8878 27.8853 23.0043 27.8263 23.0857C27.7672 23.1674 27.6981 23.2236 27.6192 23.2509C27.5377 23.2803 27.4516 23.2948 27.3649 23.2936L27.3413 22.9945C27.3748 22.9963 27.4141 22.9886 27.4575 22.9693C27.5011 22.9499 27.5444 22.9072 27.5857 22.8433C27.6271 22.777 27.6646 22.6839 27.6981 22.5635C27.7316 22.4412 27.7534 22.2821 27.7651 22.0819L27.7968 21.5441H29.0173V23.2721H28.7057V21.849Z" fill="var(--fill-0, black)"/>
<path id="path96" fill-rule="evenodd" clip-rule="evenodd" d="M29.8573 21.5464C29.7565 21.5735 29.6659 21.6122 29.589 21.6607L29.6719 21.9055C29.7429 21.8705 29.8139 21.8413 29.8847 21.8161C29.9557 21.7909 30.0466 21.7793 30.1549 21.7793C30.2418 21.7793 30.3107 21.7928 30.3639 21.8199C30.4173 21.8453 30.4566 21.884 30.4843 21.9307C30.5117 21.9774 30.5295 22.0357 30.5394 22.1034C30.5492 22.1715 30.5532 22.2452 30.5532 22.3248C30.4894 22.2806 30.4167 22.2508 30.3402 22.2375C30.2662 22.2229 30.191 22.2151 30.1155 22.2142C30.0229 22.2142 29.936 22.2277 29.8533 22.2511C29.7704 22.2744 29.6994 22.3094 29.6422 22.3561C29.5838 22.4026 29.5367 22.4616 29.5042 22.5287C29.4695 22.6022 29.4521 22.6825 29.4531 22.7637C29.4531 22.9324 29.5023 23.0647 29.6009 23.1578C29.6994 23.2509 29.8296 23.2976 29.9913 23.2976C30.1373 23.2976 30.2535 23.2724 30.3423 23.2217C30.4309 23.1713 30.5019 23.113 30.5532 23.047V23.2703H30.8451V22.2102C30.8451 21.9851 30.7957 21.8103 30.6952 21.688C30.5965 21.5655 30.421 21.5037 30.1727 21.5037C30.0661 21.5038 29.96 21.5183 29.8573 21.5464ZM30.3798 22.9459C30.309 22.9966 30.2162 23.0199 30.1019 23.0199C29.9993 23.0199 29.9224 22.9947 29.8674 22.9459C29.8121 22.8955 29.7844 22.8295 29.7844 22.7481C29.7844 22.6995 29.7943 22.6587 29.816 22.6218C29.8376 22.585 29.8674 22.5558 29.9009 22.5325C29.9344 22.5091 29.9756 22.4916 30.0211 22.48C30.0661 22.4684 30.1125 22.4626 30.1591 22.4627C30.3128 22.4627 30.4449 22.4996 30.5534 22.577V22.7964C30.5022 22.8534 30.4439 22.9037 30.3798 22.9459Z" fill="var(--fill-0, black)"/>
<path id="path98" d="M31.1504 21.5424H32.7496V21.849H32.1067V23.2703H31.7953V21.8493H31.1525V21.5424H31.1504Z" fill="var(--fill-0, black)"/>
<path id="path100" fill-rule="evenodd" clip-rule="evenodd" d="M34.2049 23.2528C34.3232 23.2159 34.4237 23.1594 34.5104 23.082L34.4158 22.8412C34.3586 22.8918 34.2818 22.9345 34.189 22.9695C34.0964 23.0045 33.9919 23.0218 33.8776 23.0218C33.7061 23.0218 33.5641 22.9772 33.4516 22.886C33.3391 22.7947 33.2782 22.6666 33.2644 22.5033H34.6131C34.6267 22.4433 34.6327 22.3752 34.6327 22.2956C34.6327 22.1773 34.611 22.0705 34.5676 21.9734C34.5272 21.8792 34.4682 21.794 34.394 21.723C34.319 21.6524 34.2306 21.5976 34.1339 21.5618C34.0327 21.5227 33.925 21.5029 33.8164 21.5035C33.6704 21.5035 33.5423 21.5287 33.43 21.5753C33.3239 21.6197 33.2279 21.6851 33.1479 21.7676C33.0702 21.8496 33.0105 21.9468 32.9724 22.053C32.9309 22.1661 32.9102 22.2858 32.9113 22.4062C32.9113 22.5423 32.9349 22.6664 32.9783 22.7772C33.0219 22.8878 33.0868 22.983 33.1676 23.0626C33.2484 23.1422 33.3471 23.2024 33.4635 23.2451C33.5881 23.2892 33.7196 23.3109 33.8518 23.3092C33.9682 23.3092 34.0866 23.2896 34.2049 23.2528ZM33.4143 21.9209C33.5109 21.8336 33.639 21.7909 33.8007 21.7909C33.9547 21.7909 34.0749 21.8336 34.1637 21.9132C34.2522 21.9949 34.2996 22.1073 34.3075 22.2511H33.2428C33.2579 22.1239 33.3188 22.0066 33.4143 21.9209ZM34.7846 21.5424H35.1789L35.7802 22.3754L35.1375 23.2703H34.7551L35.4292 22.3752L34.7846 21.5424ZM35.857 21.5424H36.1686V23.2703H35.857V21.5424ZM37.2826 23.2703L36.5965 22.3752L37.2373 21.5422H36.8507L36.2455 22.3752L36.8962 23.2703H37.2826ZM38.7062 23.2528C38.8245 23.2159 38.9251 23.1594 39.0118 23.082L38.9171 22.8412C38.8599 22.8918 38.7831 22.9345 38.6905 22.9695C38.5977 23.0045 38.4932 23.0218 38.3789 23.0218C38.2074 23.0218 38.0654 22.9772 37.9529 22.886C37.8407 22.7947 37.7795 22.6666 37.7657 22.5033H39.1144C39.1282 22.4433 39.1341 22.3752 39.1341 22.2956C39.1341 22.1773 39.1125 22.0705 39.0689 21.9734C39.0286 21.8792 38.9696 21.7941 38.8955 21.723C38.8205 21.6524 38.732 21.5976 38.6352 21.5618C38.534 21.5227 38.4263 21.5029 38.3177 21.5035C38.172 21.5035 38.0438 21.5287 37.9314 21.5753C37.8253 21.6197 37.7294 21.6852 37.6495 21.7676C37.5716 21.8495 37.5119 21.9467 37.474 22.053C37.4323 22.1661 37.4116 22.2858 37.4128 22.4062C37.4128 22.5423 37.4365 22.6664 37.4798 22.7772C37.5232 22.8878 37.5883 22.983 37.6692 23.0626C37.75 23.1422 37.8484 23.2024 37.9649 23.2451C38.0895 23.2892 38.2211 23.3109 38.3533 23.3092C38.4732 23.3083 38.5922 23.2893 38.7062 23.2528ZM37.9157 21.9209C38.0124 21.8336 38.1406 21.7909 38.3023 21.7909C38.4541 21.7909 38.5762 21.8336 38.665 21.9132C38.7538 21.9949 38.8011 22.1073 38.8088 22.2511H37.7441C37.7592 22.1239 37.8201 22.0066 37.9157 21.9209ZM40.3982 20.9619C40.2147 20.9619 40.1142 20.8609 40.0985 20.659H39.8047C39.8047 20.7365 39.8185 20.8065 39.844 20.8725C39.8698 20.9386 39.9073 20.9948 39.9565 21.0415C40.0057 21.0881 40.069 21.125 40.1418 21.1539C40.2147 21.1831 40.2995 21.1966 40.3961 21.1966C40.4849 21.1966 40.5638 21.1831 40.6348 21.1539C40.7058 21.1269 40.7649 21.0881 40.8162 21.0415C40.8654 20.9948 40.905 20.9386 40.9324 20.8725C40.96 20.8065 40.9739 20.7365 40.9739 20.659H40.6822C40.6683 20.8609 40.5716 20.9619 40.3982 20.9619ZM39.5561 21.5422V23.2703H39.8677L40.8811 21.983V23.2703H41.1927V21.5422H40.8811L39.8677 22.8295V21.5422H39.5561Z" fill="var(--fill-0, black)"/>
</g>
<defs>
<clipPath id="clip0_0_60">
<rect width="56" height="28" fill="white"/>
</clipPath>
</defs>
</svg>
