<svg preserveAspectRatio="none" width="100%" height="100%" overflow="visible" style="display: block;" viewBox="0 0 57.1959 14.8649" fill="none" xmlns="http://www.w3.org/2000/svg">
<g id="&#208;&#161;&#208;&#159;&#208;&#155;&#208;&#152;&#208;&#162;">
<path id="Vector" d="M47.089 3.15477V0.181794H57.1959V3.15477H53.9284V14.6624H50.3362V3.15477H47.089Z" fill="var(--fill-0, black)"/>
<path id="Vector_2" d="M38.2912 14.663H34.699V0.182351H38.2912V8.35297L42.0458 0.182351H45.638V14.663H42.0458V6.49234L38.2912 14.663Z" fill="var(--fill-0, black)"/>
<path id="Vector_3" d="M22.102 11.3462C22.6297 11.4136 23.0153 11.3327 23.2588 11.1035C23.5159 10.8608 23.6783 10.4226 23.7459 9.7889C23.8271 9.07431 23.8947 7.95523 23.9489 6.43166C24.0165 4.89462 24.0706 2.81151 24.1112 0.182351H33.0816V14.663H29.4894V3.15533H27.1758C27.1352 5.24517 27.0743 6.91705 26.9931 8.17095C26.9255 9.42486 26.824 10.4226 26.6887 11.1642C26.4587 12.5394 25.9378 13.5304 25.126 14.1371C24.3142 14.7439 23.3062 14.9124 22.102 14.6427V11.3462Z" fill="var(--fill-0, black)"/>
<path id="Vector_4" d="M10.4932 0.181794H20.8233V14.6624H17.2311V3.15477H14.0854V14.6624H10.4932V0.181794Z" fill="var(--fill-0, black)"/>
<path id="Vector_5" d="M6.31175 14.8649C5.01287 14.8649 3.88988 14.5682 2.94278 13.975C1.99568 13.3818 1.26506 12.5323 0.750916 11.4267C0.250305 10.3077 0 8.97959 0 7.44255C0 5.89202 0.25707 4.56395 0.771211 3.45836C1.28535 2.33928 2.01597 1.48312 2.96307 0.889869C3.9237 0.296623 5.07376 0 6.41323 0C7.49563 0 8.4292 0.18876 9.21394 0.566281V3.53925C8.44273 3.1887 7.66475 3.01342 6.88001 3.01342C4.74227 3.01342 3.6734 4.4898 3.6734 7.44255C3.6734 8.92566 3.93047 10.0313 4.44461 10.7593C4.97228 11.4739 5.78408 11.8312 6.88001 11.8312C7.71887 11.8312 8.49685 11.6357 9.21394 11.2447V14.2177C8.51038 14.6491 7.54298 14.8649 6.31175 14.8649Z" fill="var(--fill-0, black)"/>
</g>
</svg>
