<svg preserveAspectRatio="none" width="100%" height="100%" overflow="visible" style="display: block;" viewBox="0 0 87.8416 21" fill="none" xmlns="http://www.w3.org/2000/svg">
<g id="Group">
<path id="Vector" d="M45.1021 6.39598H42.2133L40.1688 9.95707H39.1164L39.083 2.25027H36.348V16.169H39.083L39.1164 12.3488H40.1622L42.8767 16.169H45.9066L42.3675 11.1064L45.1021 6.39598Z" fill="var(--fill-0, #0A2540)"/>
<path id="Vector_2" d="M65.8015 10.9802C65.2457 10.6238 64.6437 10.3444 64.0116 10.1497L63.4083 9.92384L63.2451 9.86311C62.8703 9.72388 62.4767 9.57753 62.4631 9.19968C62.4598 9.0875 62.4849 8.97627 62.5365 8.87635C62.588 8.77642 62.6643 8.69109 62.7584 8.62831C62.9562 8.49301 63.1883 8.41481 63.4284 8.4024C63.9522 8.36657 64.4713 8.51999 64.8897 8.83427L64.9637 8.88077L66.4249 7.21317L66.351 7.1534C66.169 6.99264 65.9715 6.85021 65.7612 6.72819C65.3844 6.51447 64.9742 6.36405 64.5479 6.28304C63.9337 6.15352 63.2986 6.15352 62.6844 6.28304C62.0907 6.36094 61.5273 6.58982 61.0488 6.94743C60.743 7.1846 60.4874 7.4792 60.2965 7.81435C60.1056 8.14947 59.9831 8.51864 59.9362 8.90068C59.8523 9.59017 60.029 10.286 60.4322 10.854C60.9679 11.4417 61.668 11.8581 62.443 12.0498L62.5639 12.0897L62.8386 12.1827C63.8306 12.5149 64.1123 12.6478 64.2731 12.8471C64.3478 12.9474 64.3901 13.0679 64.3937 13.1926C64.3937 13.6643 63.8105 13.857 63.4152 13.9765C63.1385 14.028 62.8545 14.0228 62.5801 13.961C62.3056 13.8993 62.0467 13.7825 61.8199 13.6178C61.4523 13.3742 61.1379 13.0602 60.8949 12.6943C60.8543 12.7362 60.7199 12.8693 60.5442 13.0433C60.0511 13.5317 59.2328 14.3423 59.2526 14.3619L59.2995 14.4283C60.0294 15.3341 61.0521 15.9629 62.195 16.2089C62.4562 16.2589 62.7207 16.2922 62.9862 16.3085H63.261C64.1638 16.3273 65.0485 16.0545 65.7813 15.5312C66.277 15.1837 66.6571 14.6981 66.8741 14.136C67.0058 13.7586 67.0524 13.3573 67.0108 12.9601C66.9692 12.5629 66.84 12.1796 66.6327 11.8373C66.4206 11.4958 66.1373 11.2036 65.8015 10.9802Z" fill="var(--fill-0, #0A2540)"/>
<path id="Vector_3" d="M72.8534 10.1498C73.4831 10.3445 74.0832 10.624 74.6363 10.9803C74.9662 11.2037 75.2446 11.4935 75.454 11.8307C75.6613 12.1731 75.7905 12.5564 75.8321 12.9535C75.8737 13.3507 75.8271 13.7521 75.6954 14.1295C75.4787 14.6916 75.0983 15.1772 74.6026 15.5247C73.8698 16.0479 72.9851 16.3207 72.0823 16.302H71.8075C71.542 16.2861 71.2779 16.2528 71.0166 16.2024C69.8734 15.9564 68.851 15.3276 68.1208 14.4218L68.0673 14.3554C68.0541 14.3379 68.7004 13.6952 69.1891 13.2096C69.4457 12.9545 69.6587 12.7427 69.7096 12.6878C69.9563 13.0508 70.27 13.3641 70.6346 13.6113C70.8628 13.7762 71.1226 13.893 71.3981 13.9548C71.6735 14.0165 71.9588 14.0216 72.2365 13.97C72.6321 13.8504 73.2084 13.6578 73.2084 13.1861C73.212 13.0613 73.1717 12.9392 73.0945 12.8406C72.9336 12.6413 72.6523 12.5084 71.6533 12.1762L71.3786 12.0832L71.2646 12.0433C70.4893 11.8516 69.7892 11.4352 69.2535 10.8475C68.847 10.2811 68.67 9.58389 68.7575 8.89417C68.8067 8.51219 68.9316 8.14356 69.1247 7.80949C69.3179 7.47543 69.5758 7.18252 69.8836 6.94756C70.3631 6.59203 70.9262 6.36338 71.5193 6.28316C72.1358 6.15348 72.7728 6.15348 73.3893 6.28316C73.8137 6.3644 74.2215 6.51482 74.596 6.72832C74.8097 6.84865 75.0095 6.99118 75.1927 7.15349L75.2598 7.21329L73.7985 8.8809L73.7315 8.83437C73.3124 8.52121 72.7936 8.36791 72.2702 8.40252C72.0298 8.41494 71.7976 8.49314 71.5998 8.62843C71.508 8.69372 71.4331 8.77942 71.3806 8.87862C71.328 8.97785 71.3 9.08782 71.298 9.1998C71.3181 9.57848 71.7072 9.72464 72.0892 9.86416L72.2431 9.92396L72.8534 10.1498Z" fill="var(--fill-0, #0A2540)"/>
<path id="Vector_4" fill-rule="evenodd" clip-rule="evenodd" d="M54.0841 6.39614V7.35285H53.9635C53.2149 6.60993 52.2008 6.18974 51.1414 6.18353C50.4922 6.17082 49.8472 6.2938 49.2492 6.54451C48.6508 6.79519 48.1125 7.16795 47.6693 7.63853C46.7754 8.63071 46.2959 9.92294 46.3286 11.2527C46.2939 12.6048 46.7724 13.9207 47.6693 14.94C48.1019 15.4109 48.6316 15.784 49.2227 16.0339C49.8139 16.2838 50.4522 16.4047 51.0945 16.3884C52.1552 16.3687 53.1753 15.9807 53.9767 15.2922H54.0841V16.1492H56.9264V6.39614H54.0841ZM54.2248 11.3059C54.2535 12.0919 53.9886 12.8606 53.4807 13.4651C53.2374 13.7352 52.9372 13.949 52.6013 14.0914C52.2655 14.2337 51.9022 14.3011 51.537 14.289C51.183 14.2949 50.832 14.2215 50.5103 14.0742C50.189 13.927 49.905 13.7097 49.6801 13.4386C49.1785 12.8215 48.9212 12.0444 48.9562 11.2527C48.9335 10.4849 49.196 9.7355 49.6937 9.14667C49.9228 8.87964 50.2088 8.66611 50.5308 8.52141C50.8531 8.3767 51.2035 8.30435 51.5571 8.30956C51.9197 8.29837 52.2804 8.36702 52.6132 8.51064C52.9458 8.65426 53.242 8.86921 53.4807 9.14003C53.9883 9.74716 54.2532 10.518 54.2248 11.3059Z" fill="var(--fill-0, #0A2540)"/>
<path id="Vector_5" fill-rule="evenodd" clip-rule="evenodd" d="M84.9996 7.35272V6.39604H87.8416V16.1491H84.9996V15.2921H84.8923C84.0905 15.9806 83.0704 16.3685 82.01 16.3883C81.3674 16.4046 80.729 16.2837 80.1383 16.0338C79.5472 15.7839 79.0171 15.4108 78.5845 14.9399C77.6876 13.9206 77.2094 12.6048 77.2441 11.2527C77.2114 9.92284 77.6906 8.63062 78.5845 7.6384C79.0297 7.16832 79.5693 6.79595 80.1683 6.54534C80.7677 6.29472 81.4133 6.17145 82.0635 6.18344C83.1206 6.19136 84.1318 6.61142 84.8787 7.35272H84.9996ZM84.3963 13.465C84.9068 12.8621 85.172 12.0922 85.1403 11.3058C85.1716 10.5174 84.9065 9.74548 84.3963 9.1399C84.1575 8.86911 83.861 8.65413 83.5284 8.51054C83.1959 8.36693 82.8349 8.29824 82.4723 8.30943C82.1187 8.30425 81.7683 8.37657 81.4463 8.52131C81.124 8.66602 80.838 8.87954 80.6088 9.14657C80.1112 9.73537 79.849 10.4848 79.8718 11.2527C79.8364 12.0443 80.094 12.8214 80.5956 13.4385C80.8205 13.7096 81.1042 13.9268 81.4258 14.0741C81.7472 14.2213 82.0982 14.2947 82.4522 14.2889C82.8174 14.3011 83.1807 14.2336 83.5165 14.0912C83.8527 13.9489 84.1529 13.7351 84.3963 13.465Z" fill="var(--fill-0, #0A2540)"/>
<path id="Vector_6" fill-rule="evenodd" clip-rule="evenodd" d="M8.7321 10.4714C8.74785 4.70279 13.5173 0 19.5107 0C25.4459 0 30.3577 4.71834 30.2895 10.5C30.2895 16.2817 25.4459 21 19.5107 21C13.5854 21 8.74795 16.3634 8.7321 10.5288V18.3418H4.91182L0 3.05695H8.7321V10.4714ZM15.4858 10.5C15.4858 12.6266 17.3277 14.4209 19.5107 14.4209C21.762 14.4209 23.5357 12.6266 23.5357 10.5C23.5357 8.37341 21.6938 6.57913 19.5107 6.57913C17.3277 6.57913 15.4858 8.37341 15.4858 10.5Z" fill="var(--fill-0, #0070F0)"/>
</g>
</svg>
