<svg preserveAspectRatio="none" width="100%" height="100%" overflow="visible" style="display: block;" viewBox="0 0 96.0006 20" fill="none" xmlns="http://www.w3.org/2000/svg">
<g id="Group">
<path id="Vector" d="M8.81715 4.50227C8.76172 4.42918 8.69865 4.39062 8.62835 4.39062C8.57661 4.39269 8.5265 4.40925 8.48373 4.43842C7.95106 4.8569 7.22235 6.62838 6.625 8.96332L7.15366 8.96934C8.19811 8.98099 9.27631 8.99343 10.3425 9.00949C10.0613 7.94001 9.79573 7.02356 9.55229 6.2834C9.19637 5.20228 8.95615 4.71793 8.81715 4.50227Z" fill="var(--fill-0, #060B13)"/>
<path id="Vector_2" d="M10.0027 0C4.47831 0 0 4.47711 0 10C0 15.5229 4.47831 20 10.0027 20C15.527 20 20.0053 15.5229 20.0053 10C20.0053 4.47711 15.5266 0 10.0027 0ZM17.1933 10.1815L17.1909 10.1835C17.1801 10.1924 17.1692 10.2004 17.1576 10.2084L17.1463 10.2161L17.123 10.2301L17.1014 10.2426C17.0254 10.2824 16.9409 10.3032 16.8551 10.3032H12.1173C12.1551 10.4602 12.1976 10.6386 12.2414 10.8325C12.5009 11.9542 13.1911 14.9337 13.9238 14.9337H13.9395H13.9475H13.9616C14.534 14.9337 14.826 14.1064 15.4664 12.2936L15.474 12.2715C15.5768 11.9803 15.6929 11.6518 15.8187 11.3044L15.8508 11.2157C15.8698 11.1656 15.9057 11.1237 15.9524 11.0973C15.999 11.0709 16.0534 11.0617 16.1062 11.0712C16.1589 11.0808 16.2067 11.1085 16.2411 11.1495C16.2755 11.1906 16.2945 11.2424 16.2947 11.296C16.2946 11.3183 16.2914 11.3405 16.2851 11.3618L16.2586 11.451C16.1919 11.6667 16.1208 11.9606 16.0388 12.3008C15.6572 13.8819 15.0807 16.2707 13.6016 16.2707H13.5908C12.6351 16.2631 12.0643 14.7357 11.8188 14.0835C11.3621 12.8639 11.0154 11.5643 10.6832 10.3056H6.32057L5.4151 13.2008L5.40185 13.1904C5.34855 13.2744 5.26943 13.339 5.17634 13.3743C5.08325 13.4096 4.98122 13.4138 4.88554 13.3863C4.78987 13.3587 4.70571 13.3009 4.64568 13.2215C4.58566 13.1421 4.55301 13.0453 4.55262 12.9458V12.9301L4.60726 12.6024C4.73219 11.8578 4.88203 11.0851 5.05316 10.304H3.21371L3.20688 10.2972C3.04268 10.2719 2.8929 10.1888 2.78456 10.0629C2.67621 9.937 2.61642 9.77654 2.61596 9.61044C2.61507 9.44812 2.67145 9.29067 2.77519 9.1658C2.87894 9.04093 3.0234 8.95662 3.18318 8.92771C3.25469 8.92014 3.3266 8.91705 3.3985 8.91847C3.42501 8.91847 3.45474 8.91847 3.48808 8.91847C4.07177 8.92851 4.69322 8.93775 5.37051 8.94659C6.33181 5.04137 7.44536 3.05904 8.68063 3.05341C10.0063 3.05341 10.9893 6.07028 11.7762 9.02169L11.7794 9.03333C13.3963 9.06586 15.1197 9.11365 16.7952 9.23414L16.8655 9.24056C16.8925 9.24107 16.9193 9.24348 16.9459 9.24779H16.9555L16.964 9.2498H16.9684C17.0668 9.26975 17.1575 9.31724 17.2299 9.38674C17.3024 9.45624 17.3536 9.54489 17.3776 9.64235C17.4016 9.73982 17.3974 9.84209 17.3655 9.93727C17.3336 10.0324 17.2753 10.1166 17.1974 10.1799L17.1933 10.1815Z" fill="var(--fill-0, #060B13)"/>
<path id="Vector_3" d="M25.5577 12.5027L24.7647 14.4618H22.4609L26.8444 4.23242H28.8791L33.2473 14.4622H30.9575L30.1645 12.5031L25.5577 12.5027ZM27.8475 6.81957L26.3515 10.5437H29.3732L27.8475 6.81957Z" fill="var(--fill-0, #060B13)"/>
<path id="Vector_4" d="M46.2298 10.5272V14.4606H44.1506V10.7068C44.1506 9.57026 43.597 8.95701 42.6241 8.95701C42.1902 8.95701 41.7114 9.15139 41.2775 9.74978C41.313 10.0075 41.333 10.2671 41.3374 10.5272V14.4606H39.2589V10.7068C39.2589 9.57026 38.7053 8.95701 37.7179 8.95701C37.3162 8.95701 36.8651 9.19797 36.4465 9.76464V14.4606H34.3672V7.29677H36.4465V7.7305C36.8952 7.31163 37.374 7.07227 38.2116 7.07227C39.1243 7.07227 39.9318 7.43131 40.5014 8.08914C41.2646 7.38633 41.9825 7.07227 43.1045 7.07227C44.8536 7.07227 46.2298 8.43331 46.2298 10.5272Z" fill="var(--fill-0, #060B13)"/>
<path id="Vector_5" d="M55.3692 10.8874C55.3692 12.9661 53.7837 14.6111 51.8088 14.6111C51.001 14.6111 50.3277 14.4019 49.7746 14.0428V17.9163H47.6953V7.29783H49.7746V7.71671C50.3281 7.35767 51.0014 7.14844 51.8088 7.14844C53.7833 7.14884 55.3692 8.77896 55.3692 10.8874ZM53.3205 10.8874C53.3205 9.82554 52.5428 8.89824 51.4654 8.89824C50.852 8.89824 50.2385 9.10747 49.775 9.73558V12.0248C50.2385 12.638 50.852 12.8473 51.4654 12.8473C52.5432 12.8461 53.3205 11.9344 53.3205 10.8874Z" fill="var(--fill-0, #060B13)"/>
<path id="Vector_6" d="M58.6182 14.4619H56.5391V3.84375H58.6182V14.4619Z" fill="var(--fill-0, #060B13)"/>
<path id="Vector_7" d="M60.4844 4.76948C60.4844 4.06667 61.0379 3.54297 61.7409 3.54297C62.429 3.54297 62.9825 4.06506 62.9825 4.76948C62.9825 5.45743 62.429 5.96587 61.7409 5.96587C61.0379 5.96587 60.4844 5.45743 60.4844 4.76948ZM62.7881 7.29679V14.4606H60.7089V7.29679H62.7881Z" fill="var(--fill-0, #060B13)"/>
<path id="Vector_8" d="M70.342 14.3567C69.4743 14.6258 69.0854 14.6857 68.4138 14.6857C66.6784 14.6857 65.5416 13.4591 65.5416 11.6049V9.04746H64.0312V7.29766H65.5421V4.74023H67.6065V7.29766H70.1943V9.04746H67.6065V11.5901C67.6065 12.3977 68.1002 12.7716 68.863 12.7716C69.2519 12.7716 69.6707 12.682 70.0744 12.5772L70.342 14.3567Z" fill="var(--fill-0, #060B13)"/>
<path id="Vector_9" d="M78.6913 14.4604H76.612V13.9519C76.0287 14.4154 75.3703 14.6849 74.5633 14.6849C72.6784 14.6849 71.4219 13.3238 71.4219 11.2451V7.29688H73.5011V11.0507C73.5011 12.1873 74.0696 12.8005 75.0421 12.8005C75.5643 12.8005 76.134 12.4865 76.6128 11.9033V7.29688H78.6921L78.6913 14.4604Z" fill="var(--fill-0, #060B13)"/>
<path id="Vector_10" d="M87.5173 14.4618H85.438V14.0429C84.8845 14.402 84.2112 14.6112 83.4034 14.6112C81.4285 14.6112 79.8281 12.9811 79.8281 10.8723C79.8281 8.79354 81.4289 7.14816 83.4034 7.14816C84.2112 7.14816 84.8845 7.3574 85.438 7.71643V3.84375H87.5173V14.4618ZM85.4376 12.0245V9.73531C84.9741 9.12206 84.3606 8.91282 83.7472 8.91282C82.6554 8.91282 81.8921 9.82527 81.8921 10.8719C81.8921 11.9337 82.6554 12.861 83.7472 12.861C84.3594 12.8618 84.9741 12.6526 85.4376 12.0245Z" fill="var(--fill-0, #060B13)"/>
<path id="Vector_11" d="M95.9552 11.4112H90.6746C90.8393 12.2486 91.3929 12.9068 92.5297 12.9068C93.113 12.9068 93.5169 12.7273 93.7413 12.3683H95.9106C95.5218 13.7442 94.1752 14.6863 92.4847 14.6863C90.1809 14.6863 88.625 13.0265 88.625 10.8875C88.625 8.67428 90.166 7.07227 92.4249 7.07227C94.4737 7.07227 96.0002 8.52287 96.0002 10.7365C96.0035 10.9623 95.9884 11.1879 95.9552 11.4112ZM90.6895 10.1847H93.9358C93.8153 9.28753 93.2774 8.79396 92.4398 8.79396C91.4375 8.79396 90.8839 9.37709 90.6895 10.1847Z" fill="var(--fill-0, #060B13)"/>
</g>
</svg>
