<svg preserveAspectRatio="none" width="100%" height="100%" overflow="visible" style="display: block;" viewBox="0 0 111.778 21.8696" fill="none" xmlns="http://www.w3.org/2000/svg">
<path id="Vector" d="M41.7304 10.9538C41.7304 7.119 44.8974 4.11953 48.6606 4.11953C52.4051 4.11953 55.5908 7.13798 55.5908 10.9538C55.5908 14.7885 52.3865 17.788 48.6606 17.788C44.8974 17.826 41.7304 14.7696 41.7304 10.9538ZM43.9287 10.9538C43.9287 13.5736 46.0152 15.7947 48.6606 15.7947C51.2874 15.7947 53.3553 13.5736 53.3553 10.9538C53.3553 8.29601 51.2315 6.09386 48.6606 6.09386C46.0152 6.09386 43.9287 8.31499 43.9287 10.9538ZM75.9344 8.08718V17.3893H73.7733V4.51819H75.5432L83.2558 13.7064V4.51819H85.4169V17.3893H83.6843L75.9344 8.08718ZM64.4771 17.75C62.7073 17.75 61.012 17.0476 59.7639 15.7567C58.5157 14.4848 57.8077 12.7572 57.8077 10.9728C57.8077 7.13799 60.7699 4.17648 64.5517 4.17648C67.2157 4.17648 68.7992 5.31552 70.1778 6.98611L68.5198 8.23905C67.5883 7.13798 66.6196 6.09386 64.4771 6.09386C61.9808 6.09386 59.9688 8.39093 59.9688 10.9538C59.9688 13.5736 61.8876 15.7947 64.4771 15.7947C67.3275 15.7947 68.4825 13.6495 68.4825 12.2826H64.5144V10.2514H70.9044C70.9416 12.2067 70.8299 14.1241 69.4885 15.6048C68.259 17.0856 66.3401 17.75 64.4771 17.75ZM35.2845 17.5602H29.5466V4.34733H35.0237C37.6505 4.34733 38.8428 6.0559 38.8428 7.82141C38.8428 8.67569 38.2653 9.81473 37.7623 10.2514C38.3584 10.5741 38.8428 11.0487 39.1967 11.6372C39.5507 12.2257 39.7184 12.8901 39.7184 13.5736C39.737 15.3201 38.4516 17.5602 35.2845 17.5602ZM34.9119 6.2837H31.7076V9.64387H34.9119C36.067 9.64387 36.6445 8.78959 36.6445 7.93531C36.6072 7.119 36.0297 6.2837 34.9119 6.2837ZM35.3404 11.5992H31.7076V15.6238H35.3404C36.6445 15.6238 37.5014 14.6367 37.5014 13.6305C37.5014 12.3966 36.6445 11.5992 35.3404 11.5992ZM108.778 11.884L111.778 17.4273H109.226L106.636 12.3016H103.786V17.4273H101.625V4.55616H107.102C110.027 4.55616 111.219 6.39761 111.219 8.39093C111.163 10.0046 110.008 11.2575 108.778 11.884ZM106.971 6.45456H103.767V10.3273H106.971C108.313 10.3273 109.021 9.22622 109.021 8.33397C109.002 7.44172 108.387 6.45456 106.971 6.45456ZM89.2359 4.53717H98.2154V6.49253H91.4342V9.66285H97.3771V11.6182H91.4342V15.453H98.4017V17.4083H89.2173V4.53717H89.2359ZM14.084 11.3714C13.73 10.8399 13.078 9.68184 13.078 9.68184C13.078 9.68184 14.084 8.59975 14.2703 7.72649C14.4566 6.91018 14.1958 6.11285 13.5624 5.60028C12.2024 4.49921 9.72467 4.91685 7.37733 4.91685H7.3587V17.0666C9.66878 17.0856 11.3641 17.0856 12.5191 17.0666C12.7427 17.0666 13.3761 16.9907 13.6555 16.8768C14.4939 16.5351 15.1086 15.5669 15.2018 14.6556C15.3322 13.023 14.3634 11.7891 14.084 11.3714ZM9.42659 6.68237C11.7553 6.5305 12.2583 6.73932 12.1651 7.46071C12.1093 7.82141 10.5257 9.11232 9.42659 9.81473C9.42659 9.83371 9.42659 6.68237 9.42659 6.68237ZM12.6309 14.4658C12.2583 14.6556 10.6561 14.5987 9.38933 14.5987V12.4345C11.4572 10.8399 11.1591 10.65 12.2397 12.6433C12.6123 13.3078 13.1711 14.181 12.6309 14.4658ZM10.712 0C4.8437 0 0 4.87889 0 10.9348C0 16.9907 4.82507 21.8696 10.712 21.8696C16.599 21.8696 21.4241 16.9907 21.4241 10.9348C21.4054 4.8599 16.599 0 10.712 0ZM10.712 19.8952C5.88696 19.8952 2.012 15.8896 2.012 10.9348C2.012 5.96098 5.88696 1.95536 10.6934 1.95536C15.4999 1.95536 19.3748 5.97996 19.3748 10.9348C19.3748 15.8896 15.5185 19.8952 10.712 19.8952Z" fill="var(--fill-0, black)"/>
</svg>
