<svg preserveAspectRatio="none" width="100%" height="100%" overflow="visible" style="display: block;" viewBox="0 0 88.4816 23.4319" fill="none" xmlns="http://www.w3.org/2000/svg">
<g id="Vector_2">
<path id="Vector" d="M3.20141 14.6449V9.26377H4.4956C5.65356 9.26377 6.60717 9.4 7.28833 9.8087C7.96948 10.2174 8.37817 10.8986 8.37817 11.9884C8.37817 13.8275 7.28833 14.6449 4.69995 14.6449H3.20141ZM0.0681152 17.2333H4.63183C9.74047 17.2333 11.5796 14.9855 11.5796 11.8522C11.5796 9.74058 10.6941 8.31015 9.12744 7.49276C7.90136 6.8116 6.33471 6.60725 4.42749 6.60725H3.20141V2.52029H10.081L10.8984 0H0V17.2333H0.0681152ZM13.6912 17.2333H16.6882L20.5708 11.6478C21.3201 10.6261 21.865 9.60435 22.2056 9.05943H22.2737C22.2056 9.8087 22.1374 10.7623 22.1374 11.7159V17.1652H25.2026V4.90435H22.2056L18.323 10.4899C17.6418 11.5116 17.0288 12.5333 16.6882 13.0783H16.6201C16.6882 12.329 16.7563 11.3754 16.7563 10.4217V4.97247H13.6912V17.2333ZM30.4475 17.2333H33.5808V7.49276H37.259L38.0764 4.90435H26.7012V7.49276H30.4475V17.2333ZM39.1662 23.4319H42.2314V17.2333C42.8445 17.4377 43.4575 17.5058 44.1386 17.5058C48.0212 17.5058 50.5415 14.8493 50.5415 11.0348C50.5415 7.08406 48.2256 4.56377 43.7981 4.56377C42.0952 4.56377 40.4604 4.90435 39.0981 5.31305V23.4319H39.1662ZM42.2314 14.5768V7.35653C42.7082 7.22029 43.1169 7.15218 43.6618 7.15218C45.9096 7.15218 47.3401 8.37827 47.3401 11.0348C47.3401 13.4188 46.1821 14.9174 43.8662 14.9174C43.2531 14.9174 42.7763 14.7812 42.2314 14.5768ZM52.3806 17.2333H55.3777L59.2602 11.6478C60.0095 10.6261 60.5544 9.60435 60.895 9.05943H60.9631C60.895 9.8087 60.8269 10.7623 60.8269 11.7159V17.1652H63.8921V4.90435H60.895L57.0124 10.4899C56.3313 11.5116 55.7182 12.5333 55.3777 13.0783H55.3095C55.3776 12.329 55.4458 11.3754 55.4458 10.4217V4.97247H52.3806V17.2333ZM66.3442 17.2333H69.4775V12.1246H71.3166C71.6572 12.1246 71.9978 12.4652 72.4065 13.2826L73.9731 17.2333H77.3107L75.0629 12.5333C74.6542 11.7159 74.2456 11.2391 73.6325 11.0348V10.9667C74.6543 10.3536 74.7905 8.58261 75.4035 7.69711C75.6079 7.42464 75.8803 7.28841 76.289 7.28841C76.4934 7.28841 76.7658 7.28841 76.9702 7.42464V4.76812C76.6296 4.63189 76.0166 4.56377 75.676 4.56377C74.5861 4.56377 73.905 4.97247 73.4282 5.65363C72.4065 7.15218 72.4064 9.74059 70.9079 9.74059H69.4775V4.90435H66.3442V17.2333ZM84.2585 17.5058C85.9614 17.5058 87.528 16.9609 88.4816 16.2797L87.5961 14.1681C86.7106 14.6449 85.8933 14.9855 84.7353 14.9855C82.6237 14.9855 81.2614 13.6232 81.2614 11.1029C81.2614 8.85508 82.6237 7.08406 84.9396 7.08406C86.1657 7.08406 87.0512 7.42464 87.9367 8.03769V5.38116C87.2556 4.97247 86.1657 4.56377 84.5991 4.56377C80.9208 4.56377 78.06 7.28841 78.06 11.171C78.06 14.7131 80.2397 17.5058 84.2585 17.5058Z" fill="var(--fill-0, #0BBBEF)"/>
</g>
</svg>
