<svg preserveAspectRatio="none" width="100%" height="100%" overflow="visible" style="display: block;" viewBox="0 0 25.6794 17.3015" fill="none" xmlns="http://www.w3.org/2000/svg">
<g id="Vector">
<path id="Vector_2" d="M0 17.3015H11.9883V14.6449H4.08691C5.17675 10.2855 11.852 9.33189 11.852 4.49566C11.852 1.90725 10.081 0 6.33471 0C4.0188 0 1.97533 0.68116 0.613032 1.36232L1.43043 3.8145C2.6565 3.20145 4.08692 2.65652 5.85791 2.65652C7.22021 2.65652 8.5144 3.26957 8.5144 4.83624C8.5144 8.37827 0.681152 8.65073 0 17.3015ZM12.3288 13.0783H20.0259V17.3015H23.091V13.0783H25.6794V10.4899H23.091V0H20.8432L12.3288 11.0348V13.0783ZM15.8027 10.6261L20.1621 4.76812C20.1621 5.24493 20.0259 6.74348 20.0259 8.1058V10.558H17.9824C17.3694 10.558 16.2114 10.6261 15.8027 10.6261Z" fill="var(--fill-0, #005893)"/>
</g>
</svg>
