<svg preserveAspectRatio="none" width="100%" height="100%" overflow="visible" style="display: block;" viewBox="0 0 126 18.0063" fill="none" xmlns="http://www.w3.org/2000/svg">
<g id="Logo">
<g id="Logo_2">
<path d="M22.3633 0H19.36V15.23H22.3633V0Z" fill="var(--fill-0, black)"/>
<path d="M15.91 0.852219H12.9066V16.0819H15.91V0.852219Z" fill="var(--fill-0, black)"/>
<path d="M9.45666 1.80363H6.45332V17.0362H9.45666V1.80363Z" fill="var(--fill-0, black)"/>
<path d="M3.00334 2.76562H0L1.14441e-05 18H3.00335L3.00334 2.76562Z" fill="var(--fill-0, black)"/>
</g>
<g id="Dolyame kern">
<path d="M101.687 8.1205L96.8508 2.74388H94.0237V15.1926H96.9754V7.25009L101.39 11.9558H101.936L106.275 7.25009V15.1926H109.227V2.74388H106.4L101.687 8.1205Z" fill="var(--fill-0, black)"/>
<path d="M123.289 2.74388L115.973 10.8351V2.74388H113.021V15.1926H115.725L123.041 7.10139V15.1926H125.993V2.74388H123.289Z" fill="var(--fill-0, black)"/>
<path d="M78.1251 7.29905C78.1251 9.28105 79.2089 10.8424 80.8726 11.497L77.7529 15.1926H81.3658L84.2037 11.8306H87.2746V15.1926H90.2263V2.74388H82.7116C79.9098 2.74388 78.1251 4.6606 78.1251 7.29905ZM87.2764 5.48568V9.16681H83.2589C81.9186 9.16681 81.1996 8.41971 81.1996 7.32443C81.1996 6.22916 81.9438 5.48206 83.2589 5.48206L87.2764 5.48568Z" fill="var(--fill-0, black)"/>
<path d="M64.4087 5.23363C64.2281 9.51498 63.3248 12.2785 61.5564 12.2785H61.1138V15.267L61.5853 15.2924C65.1313 15.49 67.0912 12.3783 67.4128 5.58179H72.077V15.1926H75.0232V2.74388H64.508L64.4087 5.23363Z" fill="var(--fill-0, black)"/>
<path d="M53.2975 2.56995C49.3053 2.56995 46.4331 5.33352 46.4331 8.9675C46.4331 12.7266 49.5582 15.3922 53.2975 15.3922C57.1922 15.3922 60.2179 12.5779 60.2179 8.9675C60.2179 5.35709 57.1922 2.56995 53.2975 2.56995ZM53.2975 12.4038C51.0413 12.4038 49.504 10.935 49.504 8.9675C49.504 6.95104 51.0431 5.52211 53.2975 5.52211C55.5519 5.52211 57.1416 7.01632 57.1416 8.9675C57.1416 10.9187 55.5303 12.4038 53.2975 12.4038Z" fill="var(--fill-0, black)"/>
<path d="M43.3026 2.76736H32.885L32.7856 5.25711C32.6375 8.84394 31.7018 12.2549 29.9333 12.3038L29.115 12.3292V18.0063L32.092 18.0004V15.1943H42.4338V18.0004H45.436V12.3038H43.3026V2.76736ZM40.3509 12.3038H34.052C35.1177 10.6863 35.6886 8.34527 35.7879 5.60709H40.3509V12.3038Z" fill="var(--fill-0, black)"/>
</g>
</g>
</svg>
