<svg preserveAspectRatio="none" width="100%" height="100%" overflow="visible" style="display: block;" viewBox="0 0 16 16" fill="none" xmlns="http://www.w3.org/2000/svg">
<g id="select 1">
<path id="Vector" d="M1.207 6.485C1.39453 6.29753 1.64884 6.19221 1.914 6.19221C2.17916 6.19221 2.43347 6.29753 2.621 6.485L6.157 10.021L13.227 2.95C13.3198 2.85709 13.4301 2.78338 13.5514 2.73307C13.6727 2.68276 13.8028 2.65684 13.9341 2.6568C14.0655 2.65675 14.1956 2.68258 14.3169 2.7328C14.4383 2.78302 14.5486 2.85666 14.6415 2.9495C14.7344 3.04234 14.8081 3.15258 14.8584 3.27391C14.9087 3.39524 14.9347 3.5253 14.9347 3.65665C14.9347 3.788 14.9089 3.91807 14.8587 4.03943C14.8085 4.1608 14.7348 4.27109 14.642 4.364L6.157 12.849L1.207 7.899C1.01953 7.71147 0.914214 7.45716 0.914214 7.192C0.914214 6.92684 1.01953 6.67253 1.207 6.485Z" fill="var(--fill-0, #0A1519)"/>
</g>
</svg>
